<svg id="Layer_1" enable-background="new 0 0 135 135" height="512" viewBox="0 0 135 135" width="512" xmlns="http://www.w3.org/2000/svg"><g><g><path d="m38.8 62.8c-.5-.3-1-.5-1.5-.8-5.5-2.5-12-2.5-17.8-.8-2 .6-3.9 1.3-5.6 2.3-13.4 7.8-13.5 28.8-2 38.4 6.8 5.6 16.7 7.3 24.9 4.2 2.9-1.1 5.6-2.8 7.5-5.2 1.7-2.2 2.6-4.8 3.3-7.4 1.3-4.6 2.3-9.4 1.3-14.1-1.5-6.8-3.9-13-10.1-16.6z" fill="#c2b59b"/></g><g><path d="m129.8 93.5c-.8 2.6-1.7 5.3-3.3 7.4-1.9 2.4-4.6 4.1-7.5 5.2-8.3 3.1-18.1 1.5-24.9-4.2-11.1-9.2-11.5-29 .5-37.5.5-.3.9-.6 1.4-.9 1.8-1 3.7-1.8 5.6-2.4 5.8-1.7 12.3-1.7 17.8.8.5.3 1.1.5 1.5.8 6.2 3.5 8.6 9.8 10.1 16.6 0 .1.1.3.1.4.9 4.7 0 9.4-1.3 13.8z" fill="#c2b59b"/></g><g><path d="m33.8 70.9c-4.6-2.4-10.3-4.1-15.3-1.9-4.3 1.9-7.4 6.1-8.2 10.7-1 6 1.3 12.4 6 16.3s11.5 5 17.1 2.9c2-.7 3.9-1.9 5.2-3.6 1.1-1.5 1.8-3.3 2.3-5.1.9-3.1 1.6-6.5.9-9.7-1-4.2-4.2-7.6-8-9.6z" fill="#fff"/></g><g><path d="m115.8 71.2c-2.5-1.5-5.3-2.7-8.3-2.9-6.4-.4-12.4 4.8-13.8 10.9-1.4 5.9.8 12.2 5.4 16 4.4 3.6 10.7 4.7 16.1 2.7 1.9-.7 3.6-1.8 4.8-3.3 1.1-1.4 1.7-3.1 2.2-4.8.9-2.9 1.5-6.1.8-9.1-.6-2.9-2.8-6.5-5.2-8.3-.7-.4-1.4-.8-2-1.2z" fill="#fff"/></g><g><path d="m37.3 62.1c-.8 3.8-4.2 7-9 5.5-11.5-3.6-18.6 8.1-19.2 18.1-.2 3.1-1.9 5.2-4 6.3-3.6-10.1-.9-22.7 8.8-28.4 1.8-1 3.7-1.8 5.6-2.4 5.8-1.7 12.2-1.7 17.8.9z" fill="#d6cab4"/></g><g><path d="m131.2 79.8c-2.7.6-5.6-.4-7.2-3.7-4.4-9.1-13.4-13.5-23.3-10.7-2.4.7-4.5.2-6.1-.9.5-.3.9-.6 1.4-.9 1.8-1 3.7-1.8 5.6-2.4 5.8-1.7 12.3-1.7 17.8.8.5.3 1.1.5 1.5.8 6.2 3.5 8.6 9.8 10.1 16.6.1.2.1.3.2.4z" fill="#d6cab4"/></g><g><path d="m44.7 37c3.5 0 6.3-1.2 9.7-2 1-.2 2.1-.5 2.6-1.4s.1-2-.6-2.7-1.6-1.1-2.5-1.4c-4-1.4-8.3-2.1-12.6-2-1.7 0-6 .1-6.7 2.2-.4 1.3 1.1 3.1 2 3.9 2 1.7 5.3 3.1 8.1 3.4z" fill="#c49a6c"/></g><g fill="#202020"><path d="m124.3 63.8c-.4-.3-.8-.5-1.2-.7-.3-.2-.6-.3-.9-.4-1-.3-1.2-.1-1.3.1s-.2.5.4 1.2l.6.6.9.9c7.9 8.3 8.7 24.1 2.6 33.4-.6 1-1.5 1.9-2.5 2.7-7.7 6.2-22.8 5.3-30.4-3.8-8-9.7-7.2-27 5.2-33.7.9 1.9 1.7 3.6 2.4 5.2-8.8 4.8-10.6 16.4-4.5 24.4 4 5.1 10.5 7.8 16.9 6.2 12.4-3.1 16.1-17.9 7.8-26.5-.9-.9-1.7-1.4-2.3-1.7s-1-.5-1.3-.6c-.6-.2-.8 0-.9.1-.1.2-.2.4.2.9.2.2.5.6 1 1s1 .9 1.6 1.8c4.2 5.6 4.1 11.8 1.3 16.3-1.6 2.5-4.4 4.9-8.1 5.8-5.2 1.3-10.6-.8-13.9-5-5.2-6.4-4.4-16.2 3-21 2.7 5.7 4.6 9.7 6 12.4 2.9 5.7 3.5 5.7 4 5.5s.9-.7-1.4-6.7c-1.1-2.8-2.7-6.9-5.2-12.7.7-.2 1.4-.3 2.1-.4 1.1-.1 2.2 0 3.2.2 2 .3 3.5.9 4.5 1.4 1.1.4 1.6.7 1.7.6s-.4-.5-1.4-1.1-2.5-1.4-4.6-2c-1-.3-2.2-.5-3.5-.5-.9 0-1.8.1-2.7.3-.7-1.7-1.5-3.5-2.4-5.4 5.6-2 11.4-2.2 17-.5.8.3 1.5.5 1.9.7s.7.2.7.1-.2-.2-.5-.5c-.4-.3-1-.7-1.8-1.1-5.4-2.6-12.2-2.6-18.2-.8-.5-1.1-1-2.2-1.5-3.4-1-2.2-2-4.5-3.1-7-.2-.4-.4-.9-.6-1.3-.1-1.4-.6-3.6-1.7-7-.8-2.4-2.4-6-4-9-.3-.5-.6-1.1-.9-1.6h1.3c10-.5 10.1-1.5 10-2.6s-.4-1.9-10.2-1.4c-2.7.1-6.9.5-10.5.9s-6.5.9-6.5 1.5 2.9 1.1 6.5 1.4c2.2.2 4.6.3 6.8.3.2.8.5 1.7.8 2.7.9 3.1 2 6.8 2.8 9.1v.1c-.2-.2-.5-.2-.9-.3-1-.1-1.8-.1-2.7-.1-9.4-.1-18 .1-29.2 1.2-1.2.1-2.4.3-3.5.4-.6.1-1.3.2-2 .4-.3.1-.7.2-1 .4-2.4-4.1-4.4-6.9-4.8-6.6-.4.2 1 3.6 2.9 8.2-.2.3-.5.6-.6.9-.4.6-.6 1-1 1.5-2.3 3.8-1.1 1.8-5.3 8.9-.6 1-1.2 2-1.7 3-.5-.3-1-.5-1.5-.8l.6.4-.6-.4c-13.3-6.2-35.9.1-36.5 21.6-.3 11.5 5.8 21.6 16.9 25.5 9.7 3.4 19.8.7 24.8-4.2 1.2-1.2 2.1-2.5 2.7-3.7s.9-2.3 1.2-3.1c.5-1.8.6-2.8.5-2.8s-.5.9-1.2 2.5c-5 10.7-17.7 12.2-26.9 8.7-9.9-4-14.7-12.9-14.3-22.7.9-18.7 20.5-22.9 31-18.2h.1c.4.2.8.4 1.2.6-1.2 2.2-2.3 4.2-3.4 6.2-.3 0-.4.1-.5.2s-.1.3.1.6c-1.3 2.4-2.4 4.7-3.4 6.6-2.6 5.2-4.1 8.6-3.8 8.7 0 .3 2.3.4 5.9.4 2.1 0 4.8.1 7.7.1-.3 1.5-.9 3-1.7 4.5-6.3 11.8-25.4 7.1-27.1-7.8-.2-1.6-.1-3.3.2-4.8 1.4-6.6 7-11.7 15.4-10.2 2.1.4 3.7 1 4.9 1.4 1.1.4 1.8.6 1.8.5s-.5-.5-1.6-1.1-2.7-1.4-4.9-2c-9.1-2.4-16.1 3.3-18 10.8-.4 1.8-.6 3.7-.4 5.6 1.4 17.8 24.7 23.5 32.3 9 1.1-2 1.7-4 2-5.9h3.5 1c0 .4-.1.9-.1 1.2-.3 2.2-.4 3.4-.4 4.1s.2.8.5.8c.2.1.5.1.9-.5s.9-1.7 1.6-4c.1-.5.3-1.1.4-1.7 3.1 0 6.1-.1 9.3-.2 1.5-.1 2.9-.1 4.6-.4.8-.2 1.7-.5 2.5-1s1.5-1.1 2-1.7c1.1-1.2 1.8-2.3 2.6-3.3 1.6-2 3-3.9 4.3-5.6 4.7-6 8.3-10.5 10.9-14.1 2.6-3.5 4.3-6 5.3-7.7.2-.3.4-.6.5-.9 1 2.2 1.9 4.2 2.8 6.2.5 1.1 1 2.2 1.5 3.2-1.2.6-2.3 1.2-3.4 2-10.8 7.7-12.3 25.3-3.6 36.3 8.8 11 26.2 12.4 35.8 4.6 1.3-1.1 2.5-2.3 3.3-3.7 8.3-13 3.8-31.3-4.7-37.1zm-91.9 21.8c-2.9.3-4.9.7-5.6 1 .6-.7 2.4-3.5 5-7.7 1.1-1.7 2.3-3.7 3.6-5.9.5.4 1 .9 1.6 1.6 2.4 2.7 3.7 5.4 3.6 9.2 0 .4 0 .8-.1 1.2-3 .1-5.8.4-8.1.6zm11.1-.9c0-.3 0-.7 0-1 0-4.2-1.6-7.8-4.9-10.7-.9-.7-1.6-1.2-2.2-1.5 1.1-1.8 2.2-3.6 3.4-5.6 5 4 7.3 11.8 7.8 15.9.1.9.2 1.8.2 2.6-2.6.2-2.6.2-4.3.3zm16-1.1c-5.1.4-3.4.3-8.6.6.1-.8.1-1.8 0-2.8-.2-3.5-2.1-12.2-7.1-17.3-.6-.6-1.2-1.1-1.9-1.6 1.8-2.8 1.7-2.7 5.6-8.8.6-1 1.3-1.9 1.9-2.9.1-.1.2-.3.3-.4 4.3 11.4 9.3 27.7 11.4 31.9.2.5.4.8.6 1.1-.7.1-1.4.1-2.2.2zm30.1-31.9c-1.3 1.5-3.2 3.7-6 7.1-2.7 3.4-6.4 7.8-11.1 13.9-1.3 1.7-2.7 3.6-4.3 5.7-.8 1-1.6 2.2-2.3 3.1-.6.8-1.2 1.2-2 1.5 0-.4 0-.9-.1-1.5-1-6.1-5.9-21.6-11.9-33 0-.1-.1-.2-.1-.2.5-.2 1-.3 1.7-.3 1.2-.1 2.3-.2 3.5-.3 10.4-.8 18.9-.9 28.8-.7.9 0 1.8 0 2.5.1.6.1 1 .2 1.3.3.3.2.6.5.9.9.3.5.6 1.1.9 1.7-.5.3-1.1.9-1.8 1.7z"/><path d="m41.8 37.9c1.4.2 2.1 0 2.5-.2s.4-.5.4-.8 0-.6-.3-.8c-.3-.3-.8-.6-1.9-1-2-1-5.1-2.5-6-4.7 0-.1-.1-.3-.1-.2s.1 0 .2-.1.3-.1.4-.2c.7-.2 1.7-.4 2.8-.4 4.9-.3 9.9.4 14 1.8 1.5.5 1.8 1.3 1.6 1.7-.1.7-10.9 3.7-10.9 4-.1 1 11.3 0 13.2-2.3.5-.6.7-1.3.8-2.1 0-.8-.2-1.5-.6-2.1-.7-1.3-1.9-1.9-2.9-2.3-5.8-2.5-14.5-3.8-19.4-2.1-.3.1-.7.3-1 .4-.3.2-.7.4-1.1.7-.7.7-1.2 1.5-1.3 2.4-.1.4 0 .9.1 1.3 1.2 3.7 5.6 6.3 9.5 7z"/></g></g></svg>