<svg id="Icons" height="512" viewBox="0 0 60 60" width="512" xmlns="http://www.w3.org/2000/svg"><path d="m27.469 59.47c-.163 0-.323-.08-.418-.227-.146-.222-.092-.519.121-.676l.884-.651-2.132 1.23c-.229.134-.525.062-.669-.16-.146-.223-.09-.521.125-.677l.159-.116-.399.23c-.215.126-.489.073-.644-.124-.153-.196-.14-.476.033-.655l2.338-2.43-2.311 1.333c-.212.124-.483.072-.638-.117-.155-.191-.148-.466.016-.649l.682-.761-.336.193c-.178.103-.397.085-.558-.038-.161-.126-.229-.336-.173-.532l.252-.881c-.083-.042-.154-.107-.204-.194-.139-.239-.057-.545.183-.683l.502-.29c.175-.102.396-.086.558.038.161.126.229.336.173.532l-.161.563 1.976-1.14c.21-.124.482-.074.638.117s.148.466-.016.649l-.682.761 2.658-1.534c.215-.125.489-.071.644.124.153.196.14.476-.033.655l-2.337 2.43 5.575-3.219c.229-.136.524-.062.669.16.146.223.09.521-.125.677l-.161.117 1.662-.959c.229-.133.524-.063.668.159.146.222.092.519-.121.676l-.885.652.739-.427c.225-.131.515-.066.662.149s.105.509-.099.673l-1.08.871.383-.221c.202-.119.461-.078.62.096.158.174.174.435.038.626l-1.171 1.651c.184-.01.378.073.479.248.139.239.057.545-.183.683l-1.716.991c-.202.119-.462.077-.619-.096-.159-.174-.175-.435-.039-.626l1.109-1.564-3.972 2.292c-.224.132-.516.066-.662-.149-.147-.216-.105-.509.099-.673l1.077-.869-2.93 1.691c-.078.046-.165.067-.25.067z" fill="#b4c2d6"/><path d="m27.558 55.47c-.164 0-.324-.081-.42-.228-.145-.224-.089-.521.127-.678l2.578-1.867-4.687 2.705c-.228.135-.522.064-.669-.16-.146-.223-.091-.52.124-.676l5.426-3.966-7.226 4.172c-.235.136-.531.06-.674-.168s-.079-.528.144-.679l2.658-1.795-2.642 1.524c-.235.135-.532.061-.675-.169s-.077-.53.147-.68l.714-.475-.204.117c-.229.132-.521.063-.667-.156-.146-.221-.095-.517.116-.676l4.094-3.084-3.543 2.045c-.222.132-.509.067-.658-.144s-.113-.501.083-.669l3.06-2.623-2.484 1.434c-.222.129-.509.068-.658-.144s-.113-.501.083-.669l.689-.589-.114.065c-.193.113-.438.081-.599-.074-.16-.156-.197-.399-.091-.596l1.048-1.94c-.015-.02-.029-.04-.042-.062-.138-.24-.056-.546.184-.684l.502-.289c.193-.111.438-.08.599.075.16.156.197.399.091.596l-.661 1.225 3.294-1.902c.221-.131.508-.067.658.144.149.211.113.501-.083.669l-.69.59 2.438-1.407c.221-.13.508-.068.658.144.149.211.113.501-.083.669l-3.062 2.626 5.968-3.445c.227-.135.521-.064.667.156.146.221.095.517-.116.676l-4.089 3.081 6.79-3.921c.233-.137.531-.062.675.169.143.229.077.53-.147.68l-.728.484 1.275-.736c.234-.137.53-.061.674.168.143.228.079.528-.144.679l-2.652 1.792 2.975-1.718c.229-.133.523-.064.669.16.146.223.091.52-.124.676l-5.428 3.967 5.015-2.895c.229-.136.524-.062.67.16.145.224.089.521-.127.678l-2.576 1.866 2.033-1.174c.224-.132.511-.066.66.146.148.213.109.504-.09.67l-2.75 2.296 2.18-1.258c.224-.132.514-.065.661.148.148.215.106.507-.096.672l-.408.333c.166-.031.337.021.457.148.158.169.181.425.053.618l-.806 1.223c.209-.046.424.048.535.239.139.239.057.545-.183.683l-1.654.956c-.199.117-.454.08-.614-.09-.158-.169-.181-.425-.053-.618l.775-1.178-3.269 1.888c-.224.131-.514.066-.661-.148-.148-.215-.106-.507.096-.672l.272-.223-1.807 1.043c-.223.131-.512.066-.66-.146s-.109-.504.09-.67l2.75-2.296-5.392 3.112c-.078.046-.165.067-.25.067z" fill="#d4ddee"/><path d="m24.158 45.47c-.167 0-.33-.084-.425-.235-.143-.229-.077-.53.146-.681l4.205-2.813-5.959 3.44c-.232.137-.529.062-.673-.166-.144-.227-.082-.526.14-.679l9.776-6.725-10.743 6.202c-.235.138-.535.06-.677-.172s-.072-.534.156-.681l5.781-3.727-5.604 3.235c-.235.139-.536.06-.677-.173-.142-.232-.071-.534.157-.681l6.374-4.078-5.856 3.381c-.235.138-.535.06-.677-.173-.142-.231-.072-.534.157-.681l7.905-5.072-7.415 4.281c-.235.137-.534.061-.677-.172-.142-.231-.072-.533.155-.681l10.198-6.606-9.855 5.689c-.238.138-.538.058-.679-.175-.141-.234-.067-.537.164-.682l2.394-1.494-2.075 1.197c-.238.137-.538.058-.679-.175-.141-.234-.067-.537.164-.682l2.923-1.826-2.67 1.541c-.238.137-.539.058-.679-.175-.141-.234-.067-.538.164-.682l2.753-1.718-2.555 1.475c-.236.138-.535.06-.678-.173-.141-.232-.07-.535.158-.681l9.127-5.834-9.116 5.263c-.238.138-.538.059-.679-.176s-.067-.537.165-.682l1.72-1.068-1.631.941c-.235.138-.535.06-.677-.173-.142-.231-.071-.534.157-.681l9.898-6.341-10.067 5.812c-.235.136-.533.06-.676-.17-.142-.23-.075-.532.151-.681l13.585-8.916-14.062 8.118c-.235.139-.536.06-.677-.173-.142-.232-.071-.534.157-.681l9.966-6.374-10.291 5.941c-.238.137-.538.058-.679-.176s-.067-.538.165-.682l2.29-1.422-2.321 1.34c-.236.138-.536.061-.678-.174-.141-.232-.07-.535.159-.681l8.78-5.582-8.884 5.129c-.236.138-.535.059-.677-.173s-.071-.534.157-.681l9.738-6.231-9.77 5.64c-.235.138-.535.06-.677-.172s-.072-.534.156-.681l10.28-6.622-10.187 5.881c-.235.137-.534.06-.676-.171s-.074-.532.152-.681l11.095-7.231-10.87 6.275c-.234.138-.535.06-.678-.173-.141-.232-.07-.535.158-.681l6.868-4.388-6.444 3.72c-.235.136-.532.06-.675-.168-.143-.229-.077-.53.146-.68l11.264-7.547-10.636 6.141c-.235.135-.533.061-.675-.169-.143-.229-.077-.53.147-.68l8.594-5.725-7.69 4.439c-.232.136-.528.062-.672-.164-.144-.227-.084-.525.136-.679l8.724-6.076-7.268 4.195c-.233.137-.53.062-.674-.167-.143-.228-.08-.527.143-.679l3.83-2.609-2.111 1.219c-.225.132-.514.065-.662-.149-.147-.215-.105-.507.098-.672l3.854-3.124c-.194.004-.38-.074-.479-.248-.139-.239-.057-.545.183-.683l5.06-2.922c.224-.133.514-.066.662.149.147.215.105.507-.098.672l-3.632 2.944 8.277-4.763c.234-.135.531-.062.674.167.143.228.08.527-.143.679l-3.835 2.612 5.835-3.368c.233-.135.528-.062.672.164.144.227.084.525-.136.679l-8.727 6.078 11.003-6.352c.234-.137.531-.062.675.169.143.229.077.53-.147.68l-8.586 5.719 10.098-5.829c.234-.137.531-.061.675.168.143.229.077.53-.146.68l-11.27 7.551 12.739-7.354c.236-.137.536-.059.678.173.141.232.07.535-.158.681l-6.867 4.388 7.61-4.394c.236-.136.535-.06.676.171.142.23.074.532-.152.681l-11.089 7.228 11.979-6.916c.235-.136.535-.061.677.172s.072.534-.156.681l-10.284 6.624 10.927-6.308c.237-.137.536-.059.677.173.142.232.071.534-.157.681l-9.737 6.231 10.203-5.891c.237-.136.537-.059.678.174s.07.535-.159.681l-8.77 5.574 9.069-5.235c.237-.138.537-.059.679.176.141.234.067.538-.165.682l-2.314 1.437 2.348-1.354c.237-.137.536-.06.677.173.142.232.071.534-.157.681l-9.966 6.373 10.12-5.842c.235-.137.533-.06.676.17.142.23.075.532-.151.681l-13.583 8.914 13.721-7.921c.237-.136.536-.059.677.173.142.231.071.534-.157.681l-9.899 6.341 9.754-5.631c.236-.139.538-.06.679.176.141.234.067.537-.165.682l-1.716 1.065 1.378-.795c.237-.137.536-.059.678.173.141.232.07.535-.158.681l-9.121 5.831 8.726-5.038c.236-.139.537-.059.679.175.141.234.067.538-.164.682l-2.767 1.726 2.236-1.29c.236-.139.538-.059.679.175s.067.537-.164.682l-2.92 1.824 2.286-1.319c.236-.138.537-.059.679.175.141.234.067.537-.164.682l-2.386 1.489 1.62-.935c.236-.137.534-.061.677.172.142.231.072.533-.155.681l-10.203 6.609 9.027-5.211c.237-.137.537-.059.677.173.142.231.072.534-.157.681l-7.898 5.067 6.358-3.671c.237-.137.536-.059.677.173.142.232.071.534-.157.681l-6.384 4.085 4.312-2.489c.235-.137.535-.06.677.172s.072.534-.156.681l-5.774 3.723 3.993-2.306c.234-.135.53-.062.673.166.144.227.082.526-.14.679l-9.78 6.728 8.095-4.673c.234-.137.531-.062.675.168.143.229.077.53-.146.681l-4.205 2.812 3.187-1.839c.227-.135.521-.064.666.156.146.22.097.515-.113.675l-6.077 4.619 5.145-2.97c.224-.133.516-.065.663.15s.104.509-.101.672l-3.523 2.827 2.868-1.655c.227-.133.52-.064.666.155s.098.514-.112.674l-.434.332c.191-.05.403.016.529.183.152.202.13.485-.053.66l-.913.882.202-.116c.238-.14.545-.057.683.183.139.239.057.545-.183.683l-3.736 2.157c-.217.127-.497.071-.649-.132-.152-.202-.13-.485.053-.66l.913-.882-2.899 1.674c-.227.133-.52.064-.666-.155s-.098-.514.112-.674l.333-.256-1.88 1.085c-.227.132-.516.064-.663-.15-.147-.216-.104-.509.101-.672l3.523-2.827-6.322 3.649c-.228.133-.521.063-.666-.156-.146-.22-.097-.515.113-.675l6.076-4.618-9.439 5.449c-.079.046-.165.067-.25.067z" fill="#f6ca4a"/><path d="m29.664 29.47c-.146 0-.289-.063-.387-.183-.155-.189-.15-.463.011-.647l.512-.583-1.344.775c-.213.125-.486.072-.643-.122-.153-.195-.142-.473.029-.653l1.716-1.82-1.455.84c-.219.13-.506.069-.657-.142-.149-.21-.115-.499.079-.668l.572-.499-.053.03c-.218.128-.499.071-.651-.134-.151-.203-.126-.488.058-.662l1.512-1.429-.993.573c-.224.132-.513.065-.661-.147-.148-.214-.107-.506.094-.671l.3-.247c-.153.012-.322-.058-.427-.191-.154-.196-.14-.476.034-.654l2.427-2.517-1.917 1.106c-.217.126-.495.071-.647-.129s-.133-.482.046-.659l2.339-2.315-1.831 1.057c-.218.127-.5.069-.652-.135-.15-.205-.125-.49.062-.663l2.059-1.92-1.55.895c-.218.13-.501.07-.653-.137-.15-.206-.123-.492.065-.664l2.086-1.913-1.58.911c-.22.131-.505.067-.655-.14-.15-.208-.119-.496.073-.666l1.953-1.739-1.449.836c-.224.132-.51.065-.659-.146-.149-.212-.111-.503.087-.67l1.37-1.153-.864.499c-.211.124-.482.073-.638-.117-.155-.189-.149-.465.015-.647l1.955-2.197-1.43.824c-.199.117-.453.08-.612-.088s-.183-.423-.058-.616l.507-.782c-.162-.01-.316-.098-.403-.249-.139-.239-.057-.545.183-.683l1.421-.82c.201-.116.454-.079.612.088.159.168.183.423.058.616l-.408.63 2.312-1.334c.21-.123.482-.074.638.117.155.189.149.465-.014.647l-1.955 2.196 3.087-1.781c.223-.132.511-.066.659.146.149.212.111.503-.087.67l-1.372 1.154.779-.449c.221-.128.506-.067.655.14.15.208.119.496-.073.666l-1.954 1.74 1.29-.744c.22-.127.502-.07.653.137.15.206.123.492-.065.664l-2.082 1.91 1.407-.812c.218-.128.5-.069.652.135.15.205.125.49-.062.663l-2.061 1.922 1.383-.798c.215-.128.494-.072.647.129.152.2.133.482-.046.659l-2.339 2.315 1.64-.946c.214-.126.489-.071.644.125s.14.476-.034.654l-2.427 2.517 1.712-.988c.226-.131.514-.065.661.147.148.214.107.506-.094.671l-.373.308h.002c.153 0 .304.07.401.201.151.203.126.488-.058.662l-1.509 1.426.836-.482c.221-.128.507-.068.657.142.149.21.115.499-.079.668l-.586.511c.203-.089.446-.028.589.149.153.195.142.473-.029.653l-1.716 1.82 1.011-.583c.21-.124.48-.074.637.115.155.189.15.463-.011.647l-.556.633c.214-.046.436.042.547.237.139.239.057.545-.183.683l-2.441 1.409c-.078.046-.164.067-.25.067z" fill="#dda34e"/><path d="m29.106 37.256c-.148 0-.295-.066-.393-.19-.153-.195-.142-.474.029-.653l.23-.243-.427.246c-.196.114-.442.081-.603-.078s-.193-.405-.082-.602l.768-1.352-.064.037c-.24.138-.547.056-.683-.183-.139-.239-.057-.545.183-.683l1.657-.956c.195-.116.44-.082.603.078.16.159.193.405.082.602l-.767 1.351 1.812-1.046c.214-.126.488-.073.643.123.153.195.142.474-.029.653l-.257.271c.219-.067.467.02.585.227.139.239.057.545-.183.683l-2.854 1.648c-.078.046-.164.067-.25.067z" fill="#dda34e"/><g fill="#262626"><path d="m29.283.607c-9.242.478-16.981 8.119-17.008 17.479-.469 6.113 4.256 10.413 6.036 15.834 1.91 3.515-.927 9.491 3.339 11.33-.462 2.242-1.584 9.79 1.669 10.12.271 2.468 1.528 4.658 4.328 4.162 3.727.001 8.927.988 9.018-4.286 1.653-.31 2.259-1.974 2.059-3.49-.236-2.156.506-4.741-.351-6.691 4.296-1.561.814-11.573 6.691-17.979 7.608-11.446-2.153-27.533-15.781-26.479zm-5.074 44.813c4.108-.025 8.219.058 12.326 0 1.466.365.46 2.985.741 4.166h-14.551c.049-1.382-.11-2.804.085-4.163.469.017.944-.004 1.399-.004zm10.297 12.395c-1.511 1.426-4.207.328-6.149.653-2.279.516-3.271-1.014-3.48-3.054 3.433.002 6.866.022 10.299 0-.244.788-.301 1.662-.67 2.401zm1.956-3.285c-3.925.193-7.91-.002-11.877.06-2.251-.048-1.886-2.505-1.86-4.176h14.551c-.025.992.422 3.635-.813 4.116zm7.861-28.537c-11.848 16.163 5.452 19.76-20.496 18.587-5.475.076-1.86-10.26-5.323-14.143-7.843-9.311-5.564-24.967 7.097-28.466 13.459-4.004 25.638 11.971 18.722 24.021z"/><path d="m30.193 6.658c-7.057-.766-2.671 9.504-3.391 13.672.712 3.061-1.544 9.817 3.534 9.012 4.14-.336 2.174-5.848 2.828-8.656-.747-3.856 3.544-15.149-2.97-14.028zm1.649 11.604c-.531 3.232.446 7.51-.905 10.396-1.064 0-2.178.079-2.348-1.298.233-6.494-1.684-13.935-.314-20.019 6.78-1.493 3.083 7.043 3.567 10.92z"/><path d="m31.158 32.787c-1.154-.301-2.523.078-3.337.954-3.056 6.356 9.361 2.78 3.337-.954zm-.212 3.446c-2.819.945-2.879-2.017-1.451-2.887 1.411-.161 2.284 1.808 1.451 2.887z"/></g></svg>