<svg id="Layer_1" enable-background="new 0 0 66 66" height="512" viewBox="0 0 66 66" width="512" xmlns="http://www.w3.org/2000/svg"><g><g><path d="m44.14 28.99c-.58.93-1.01 2.04-1.25 3.46-.71 4.32-3.46 24.13-7.01 25.5-4.98 1.91-6.98-19.81-7.35-23.22-.07-.67-.79-1.04-1.36-.7-4.11 2.45-8.01 4-12.39 6.39-.71 1.15-.67 2.6-.86 3.94-.51 3.72-2.52 3.7-4.17 1.17-1.21-1.86-2.48-3.66-3.63-5.55-1.43-2.37-3.05-4.78-3.69-7.51-.57-2.43 1.37-3.12 3.25-2.35 2.07.85 4.71 2.62 7.02 2.44 1.18-.09 2.27-.65 3.31-1.23 2.32-1.27 4.8-2.41 7.05-3.81.52-.32.57-1.07.12-1.47-4.02-3.58-8.18-7-11.79-11.01-1.28-1.43-6.12-6.92-1.41-7.09 6.88-.24 13.63 5.35 19.97 7.52 2.49.86 5.04 1.72 7.66 1.65 3.05-.08 16.66-8.23 21.26-9.04 7.31-1.3 5.51 5.29-.4 9.21-5.45 3.93-12.45 8.7-14.33 11.7z" fill="#de80bc"/></g><g opacity=".1"><path d="m59.65 8c-.8 1.66-2.43 3.5-4.64 4.97-5.45 3.91-12.45 8.68-14.33 11.68-.58.93-1.01 2.04-1.25 3.46-.71 4.32-3.46 24.13-7.01 25.5-.17.07-.34.1-.5.11 1.04 2.95 2.34 4.85 3.97 4.23 3.55-1.37 6.3-21.18 7.01-25.5.24-1.42.66-2.53 1.25-3.46 1.88-3 8.88-7.77 14.33-11.68 5.67-3.78 7.53-9.99 1.17-9.31z"/></g><g><path d="m35.28 58.81c-.44 0-.87-.13-1.27-.37-2.68-1.64-4.68-9.16-6.13-22.97l-.07-.65c-.01-.09-.07-.14-.1-.15-.05-.02-.1-.02-.15.01-2.35 1.4-4.59 2.49-6.96 3.64-1.7.82-3.45 1.68-5.27 2.66-.38.72-.46 1.61-.56 2.54-.03.32-.06.64-.11.96-.35 2.6-1.38 3.36-2.18 3.54-1.12.25-2.3-.48-3.33-2.07-.41-.63-.83-1.26-1.25-1.88-.8-1.2-1.63-2.43-2.39-3.69l-.54-.88c-1.3-2.13-2.65-4.33-3.24-6.83-.4-1.69.28-2.57.72-2.94.82-.73 2.17-.83 3.52-.28.57.23 1.16.52 1.79.83 1.59.78 3.39 1.67 4.9 1.56 1.01-.08 2-.58 3.01-1.14.86-.47 1.74-.92 2.62-1.38 1.48-.76 3-1.54 4.4-2.41.06-.04.07-.09.08-.13 0-.03 0-.11-.06-.16-.87-.78-1.75-1.54-2.62-2.31-3.13-2.74-6.37-5.58-9.23-8.76-2.95-3.27-4.08-5.55-3.47-6.98.36-.84 1.22-1.29 2.57-1.34 4.65-.15 9.16 2.18 13.52 4.45 2.34 1.22 4.54 2.37 6.72 3.11 2.4.83 4.87 1.67 7.4 1.61 1.36-.04 5.78-2.22 9.68-4.14 4.45-2.2 9.06-4.46 11.47-4.89 3.86-.68 5.06.78 5.44 1.72.96 2.39-1.32 6.18-5.3 8.83l-1.87 1.33c-4.99 3.56-10.65 7.59-12.24 10.12-.56.9-.94 1.94-1.14 3.19-.07.41-.15.97-.26 1.63-2.53 16.16-4.68 23.46-7.22 24.44-.3.12-.59.18-.88.18zm-7.65-25.64c.25 0 .5.06.73.17.51.25.85.74.91 1.31l.07.66c1.81 17.24 4.18 21.1 5.44 21.87.29.18.55.2.85.09 1.28-.49 3.42-4.93 6.29-23.29.11-.67.19-1.23.26-1.64.24-1.45.68-2.67 1.35-3.73 1.74-2.78 7.53-6.9 12.64-10.54l1.89-1.35c3.6-2.39 5.37-5.58 4.77-7.07-.37-.9-1.76-1.2-3.83-.83-2.21.39-6.92 2.71-11.08 4.76-4.62 2.28-8.61 4.24-10.29 4.29-2.8.08-5.51-.86-7.92-1.69-2.28-.78-4.64-2.01-6.92-3.2-4.19-2.18-8.53-4.43-12.78-4.28-.41.02-1.12.09-1.27.44-.09.21-.36 1.46 3.19 5.42 2.79 3.11 6 5.92 9.1 8.63.88.77 1.76 1.54 2.63 2.32.39.35.59.86.55 1.39-.05.52-.32.98-.77 1.26-1.45.91-3 1.7-4.5 2.47-.87.45-1.74.89-2.58 1.36-1.15.64-2.3 1.21-3.6 1.32-1.9.15-3.9-.83-5.66-1.7-.59-.29-1.16-.57-1.7-.79-.8-.33-1.62-.32-2.02.02s-.35.99-.24 1.48c.53 2.27 1.82 4.37 3.06 6.4l.54.89c.74 1.23 1.56 2.45 2.35 3.64.42.63.84 1.26 1.26 1.9.72 1.11 1.41 1.52 1.78 1.44.35-.08.83-.73 1.05-2.3.04-.3.07-.6.1-.9.11-1.13.22-2.29.86-3.33.07-.11.16-.2.28-.26 1.92-1.05 3.75-1.94 5.52-2.8 2.34-1.14 4.55-2.21 6.85-3.58.26-.18.55-.25.84-.25z" fill="#6f1e3f"/></g><g><g><path d="m38.11 37.19c-.17.06-.78-2.63.1-5.82.85-3.2 2.74-5.2 2.86-5.07.18.12-1.38 2.22-2.18 5.25-.84 3.03-.56 5.62-.78 5.64z" fill="#813b57"/></g></g><g><g><path d="m19.45 18.35c-.08.16-2.08-.82-4-2.75-1.92-1.92-2.9-3.92-2.74-4 .18-.11 1.38 1.67 3.23 3.51 1.85 1.86 3.62 3.07 3.51 3.24z" fill="#813b57"/></g></g></g></svg>