<svg id="Icons" height="512" viewBox="0 0 60 60" width="512" xmlns="http://www.w3.org/2000/svg"><g fill="#ad2d46"><path d="m41.6 3.144a.5.5 0 0 1 -.25-.933l2.629-1.517a.5.5 0 0 1 .5.866l-2.625 1.516a.5.5 0 0 1 -.254.068z"/><path d="m44.971 13.954a.5.5 0 0 1 -.355-.853l1.623-1.627-3.632 2.1a.5.5 0 0 1 -.574-.813l3.427-2.926-5.121 2.956a.5.5 0 0 1 -.559-.826l4.167-3.265-5.229 3.019a.5.5 0 0 1 -.534-.844l.806-.557-1.274.735a.5.5 0 0 1 -.54-.84l2.59-1.841-3.256 1.874a.5.5 0 0 1 -.543-.838l3.425-2.482-4.216 2.433a.5.5 0 0 1 -.535-.842l1.416-.985-1.944 1.121a.5.5 0 0 1 -.55-.833l.148-.11-.545.314a.5.5 0 0 1 -.566-.819l2.046-1.674-2.322 1.34a.5.5 0 0 1 -.571-.815l1.793-1.5-1.09.629a.5.5 0 0 1 -.6-.792l1.315-1.272a.492.492 0 0 1 -.281-.226.5.5 0 0 1 .182-.683l2.628-1.519a.5.5 0 0 1 .6.792l-.829.8 2.545-1.468a.5.5 0 0 1 .571.816l-1.8 1.5 2.687-1.551a.5.5 0 0 1 .567.819l-2.041 1.678 2.5-1.441a.5.5 0 0 1 .55.833l-.151.112 4.978-2.875a.5.5 0 0 1 .535.843l-1.412.984 2.246-1.3a.5.5 0 0 1 .543.838l-3.431 2.488 4.072-2.35a.5.5 0 0 1 .54.84l-2.581 1.835 2.772-1.6a.5.5 0 0 1 .534.844l-.82.566.672-.386a.5.5 0 0 1 .558.826l-4.163 3.264 3.748-2.163a.5.5 0 0 1 .575.814l-3.427 2.923 2.172-1.254a.5.5 0 0 1 .6.786l-2.55 2.556a.478.478 0 0 1 .1.125.5.5 0 0 1 -.183.682l-1.762 1.018a.489.489 0 0 1 -.244.067z"/><path d="m10.03 13.146a.5.5 0 0 1 -.307-.9l1.29-1.007-.733.423a.5.5 0 0 1 -.561-.823l1.739-1.389-1.178.68a.5.5 0 0 1 -.551-.83l.449-.339a.493.493 0 0 1 -.545-.174.5.5 0 0 1 .045-.658l1.755-1.741-1.153.665a.5.5 0 0 1 -.7-.645l.566-1.208a.5.5 0 0 1 -.313-.929l1.167-.671a.5.5 0 0 1 .7.645l-.541 1.155 3.112-1.8a.5.5 0 0 1 .6.787l-1.751 1.738 3.48-2.011a.5.5 0 0 1 .551.832l-.386.292a.5.5 0 0 1 .515.847l-1.733 1.387 1.182-.682a.5.5 0 0 1 .557.827l-3.56 2.783a.4.4 0 0 1 .058.082.5.5 0 0 1 -.182.682l-3.322 1.914a.493.493 0 0 1 -.25.068z"/></g><path d="m11.175 51.47a.5.5 0 0 1 -.265-.924l11.261-7.031-13.663 7.885a.5.5 0 0 1 -.508-.856l8.924-5.5-10.604 6.121a.5.5 0 0 1 -.52-.855l19.506-12.31-20.016 11.554a.5.5 0 0 1 -.514-.858l15.387-9.552-14.884 8.592a.5.5 0 0 1 -.509-.86l2.449-1.485-1.941 1.12a.5.5 0 0 1 -.511-.859l11.981-7.38-11.47 6.628a.5.5 0 0 1 -.509-.86l6-3.656-5.492 3.164a.5.5 0 0 1 -.514-.857l17.059-10.669-16.546 9.552a.5.5 0 0 1 -.514-.856l15.363-9.6-14.85 8.57a.5.5 0 0 1 -.517-.855l17.451-11.063-16.935 9.776a.5.5 0 0 1 -.515-.857l12.826-8.033-12.311 7.108a.5.5 0 0 1 -.514-.857l10.465-6.533-9.952 5.745a.5.5 0 0 1 -.514-.856l9.5-5.939-8.99 5.19a.5.5 0 0 1 -.518-.855l13.2-8.419-12.68 7.32a.5.5 0 0 1 -.517-.855l10.435-6.616-9.918 5.725a.5.5 0 0 1 -.521-.852l12.306-7.944-11.785 6.8a.5.5 0 0 1 -.521-.853l10.108-6.5-9.588 5.542a.5.5 0 0 1 -.52-.854l8.207-5.253-7.688 4.433a.5.5 0 0 1 -.528-.849l11.6-7.718-11.073 6.39a.5.5 0 0 1 -.528-.848l9.912-6.594-9.385 5.418a.5.5 0 0 1 -.533-.846l17.543-12a.5.5 0 0 1 .241-.531l3.464-2a.5.5 0 0 1 .533.846l-10.393 7.109 11.678-6.741a.5.5 0 0 1 .527.848l-9.908 6.592 11.01-6.356a.5.5 0 0 1 .527.848l-11.6 7.721 12.824-7.402a.5.5 0 0 1 .519.853l-8.2 5.256 9.029-5.213a.5.5 0 0 1 .521.854l-10.1 6.494 11.037-6.376a.5.5 0 0 1 .522.852l-12.308 7.947 13.39-7.731a.5.5 0 0 1 .517.855l-10.437 6.618 11.324-6.538a.5.5 0 0 1 .519.854l-13.191 8.415 14.243-8.222a.5.5 0 0 1 .515.856l-9.507 5.942 10.284-5.936a.5.5 0 0 1 .515.856l-10.461 6.53 11.27-6.507a.5.5 0 0 1 .515.856l-12.834 8.038 13.752-7.939a.5.5 0 0 1 .518.854l-17.455 11.067 18.661-10.774a.5.5 0 0 1 .515.857l-15.367 9.6 16.37-9.45a.5.5 0 0 1 .515.857l-17.052 10.668 17.4-10.046a.5.5 0 0 1 .509.859l-5.983 3.648 5.474-3.161a.5.5 0 0 1 .512.859l-11.991 7.387 11.482-6.629a.5.5 0 0 1 .509.86l-2.431 1.474 1.921-1.109a.5.5 0 0 1 .513.858l-15.388 9.554 14.877-8.588a.5.5 0 0 1 .516.855l-19.507 12.314 18.992-10.963a.5.5 0 0 1 .512.858l-8.93 5.5 8.419-4.86a.5.5 0 0 1 .514.856l-11.254 7.028 10.74-6.2a.5.5 0 0 1 .521.853l-15.494 10.035 14.974-8.645a.5.5 0 0 1 .514.857l-5.421 3.39 4.908-2.833a.5.5 0 0 1 .52.854l-8.922 5.738 7.306-4.216a.5.5 0 0 1 .531.846l-10.395 7.081 6.452-3.727a.5.5 0 0 1 .546.835l-6.9 5.069 2.935-1.69a.5.5 0 0 1 .553.831l-2.565 1.955a.5.5 0 0 1 .3.849l-2.107 2.121a.5.5 0 0 1 -.193.664l-1.15.664a.5.5 0 0 1 -.605-.785l.7-.71-2.591 1.5a.5.5 0 0 1 -.553-.83l1.968-1.5-4.035 2.327a.5.5 0 0 1 -.545-.836l6.894-5.064-10.225 5.9a.5.5 0 0 1 -.532-.845l10.4-7.084-13.739 7.929a.5.5 0 0 1 -.52-.853l8.924-5.739-11.42 6.592a.5.5 0 0 1 -.515-.856l5.411-3.385-7.345 4.241a.5.5 0 0 1 -.522-.852l15.494-10.032-18.857 10.884a.5.5 0 0 1 -.25.07z" fill="#eaf4f4"/><path d="m47.676 20.368a.5.5 0 0 1 -.382-.822l.743-.881-1.376.794a.5.5 0 0 1 -.641-.743l.854-1.077-1.574.911a.5.5 0 0 1 -.681-.687l1.064-1.8-2.2 1.273a.5.5 0 0 1 -.681-.687l1.063-1.8-2.219 1.271a.5.5 0 0 1 -.6-.79l.091-.089-.436.251a.5.5 0 0 1 -.661-.717l1.006-1.456-1.933 1.116a.5.5 0 0 1 -.615-.775l.461-.491-.937.54a.5.5 0 0 1 -.675-.7l1.059-1.709-2.146 1.235a.5.5 0 0 1 -.682-.685l1.068-1.819-2.221 1.282a.5.5 0 0 1 -.648-.736l.912-1.192-1.689.977a.5.5 0 0 1 -.682-.684l1.069-1.832-2.236 1.289a.5.5 0 0 1 -.6-.789l.106-.105-.457.259a.5.5 0 0 1 -.653-.729l.961-1.309-1.803 1.045a.5.5 0 0 1 -.614-.775l.46-.49-.935.539a.5.5 0 0 1 -.616-.768l.575-.635-1.105.638a.5.5 0 0 1 -.5-.866l3.867-2.233a.5.5 0 0 1 .62.769l-.575.635 1.1-.637a.5.5 0 0 1 .615.774l-.46.49.934-.539a.5.5 0 0 1 .654.729l-.961 1.309 1.8-1.041a.5.5 0 0 1 .6.789l-.106.1.453-.261a.5.5 0 0 1 .681.685l-1.065 1.836 2.231-1.287a.5.5 0 0 1 .626.1.5.5 0 0 1 .022.632l-.912 1.2 1.692-.976a.5.5 0 0 1 .682.685l-1.068 1.814 2.22-1.282a.5.5 0 0 1 .676.7l-1.059 1.717 2.145-1.238a.5.5 0 0 1 .615.775l-.462.492.937-.54a.5.5 0 0 1 .661.717l-1.006 1.456 1.932-1.12a.5.5 0 0 1 .6.79l-.089.087.43-.248a.5.5 0 0 1 .6.081.5.5 0 0 1 .076.606l-1.064 1.8 2.207-1.274a.5.5 0 0 1 .681.687l-1.063 1.8 2.2-1.272a.5.5 0 0 1 .642.743l-.855 1.078 1.579-.911a.5.5 0 0 1 .632.755l-.744.881.8-.46a.5.5 0 1 1 .5.865l-3.265 1.892a.489.489 0 0 1 -.25.068z" fill="#d3374e"/><path d="m2.484 20.716a.5.5 0 0 1 -.267-.922l6.7-4.248-6.95 4.013a.5.5 0 0 1 -.52-.854l7.8-4.982-7.96 4.594a.5.5 0 0 1 -.516-.856l7.42-4.644a.493.493 0 0 1 -.219-.194.5.5 0 0 1 .156-.681l13.034-8.405a.5.5 0 0 1 .25-.45l4.301-2.487a.5.5 0 0 1 .52.853l-.453.293 1.234-.712a.5.5 0 0 1 .515.857l-2.436 1.528 2.944-1.7a.5.5 0 0 1 .52.853l-7.79 4.978 8.583-4.95a.5.5 0 0 1 .517.854l-17.117 10.846a.5.5 0 0 1 -.188.675l-9.828 5.673a.5.5 0 0 1 -.25.068z" fill="#d3374e"/><path d="m19.842 51.5a.5.5 0 0 1 -.287-.909l4.819-3.379-6.094 3.516a.5.5 0 0 1 -.527-.849l2.9-1.933-2.373 1.371a.5.5 0 0 1 -.542-.838l7.834-5.635-7.292 4.21a.5.5 0 0 1 -.535-.843l6.214-4.324-5.679 3.278a.5.5 0 0 1 -.527-.849l2.856-1.9-2.329 1.344a.5.5 0 0 1 -.523-.852l.508-.331a.5.5 0 0 1 -.524-.849l7.169-5.081-6.63 3.828a.5.5 0 0 1 -.536-.843l6.24-4.363-5.7 3.293a.5.5 0 0 1 -.529-.848l2.837-1.914-2.312 1.333a.5.5 0 0 1 -.552-.83l5.162-3.937-4.61 2.66a.5.5 0 0 1 -.563-.822l3.12-2.514-2.557 1.476a.5.5 0 0 1 -.578-.81l1.507-1.312-.929.535a.5.5 0 0 1 -.674-.7l.891-1.426a.5.5 0 0 1 -.43-.9l1.659-.957a.5.5 0 0 1 .673.7l-.882 1.414 3.662-2.11a.5.5 0 0 1 .578.809l-1.507 1.311 3.678-2.12a.5.5 0 0 1 .563.822l-3.119 2.513 5.777-3.335a.5.5 0 0 1 .553.83l-5.161 3.936 7.976-4.6a.5.5 0 0 1 .529.847l-2.835 1.912 3.268-1.887a.5.5 0 0 1 .537.843l-6.242 4.364 5.948-3.434a.5.5 0 0 1 .539.841l-7.172 5.082 6.636-3.83a.5.5 0 0 1 .523.852l-.5.328a.5.5 0 0 1 .509.859l-2.858 1.9 2.333-1.346a.5.5 0 0 1 .535.843l-6.217 4.319 5.68-3.28a.5.5 0 0 1 .542.839l-7.833 5.634 7.294-4.211a.5.5 0 0 1 .528.849l-2.9 1.931 2.376-1.372a.5.5 0 0 1 .537.842l-4.82 3.379 4.284-2.47a.5.5 0 0 1 .545.837l-3.6 2.621 3.054-1.763a.5.5 0 0 1 .546.836l-1.494 1.1.95-.547a.5.5 0 0 1 .6.79l-2.352 2.3 1.755-1.012a.5.5 0 0 1 .6.785l-.421.424a.5.5 0 0 1 .537.665l-.262.724a.514.514 0 0 1 .228.206.5.5 0 0 1 -.184.684l-.62.357a.5.5 0 0 1 -.571-.05.5.5 0 0 1 -.149-.553l.152-.42-1.78 1.027a.5.5 0 0 1 -.6-.785l.328-.326-1.93 1.112a.5.5 0 0 1 -.6-.79l2.351-2.3-5.373 3.1a.5.5 0 0 1 -.546-.836l1.5-1.1-3.36 1.94a.5.5 0 0 1 -.545-.837l3.593-2.618-5.998 3.459a.491.491 0 0 1 -.25.07z" fill="#874b4b"/><path d="m44.6 34.875a.5.5 0 0 1 -.25-.933l3.523-2.034a.5.5 0 1 1 .5.865l-3.523 2.035a.494.494 0 0 1 -.25.067z" fill="#d3374e"/><path d="m42.521 59.272a.5.5 0 0 1 -.279-.914l1.479-1-2.211 1.278a.5.5 0 0 1 -.539-.841l7.659-5.415-9.091 5.247a.5.5 0 0 1 -.533-.845l8.806-6.045-10.093 5.827a.5.5 0 0 1 -.528-.848l8.764-5.855-9.813 5.665a.5.5 0 0 1 -.525-.85l8.242-5.4-9.081 5.243a.5.5 0 0 1 -.523-.852l8.646-5.64-9.401 5.427a.5.5 0 0 1 -.515-.856l.865-.541-1.151.664a.5.5 0 0 1 -.523-.852l9.753-6.369-10.415 6.011a.5.5 0 0 1 -.522-.853l8.821-5.713-9.3 5.37a.5.5 0 0 1 -.527-.849l11.354-7.533-11.89 6.867a.5.5 0 0 1 -.528-.849l11.112-7.426-11.479 6.623a.5.5 0 0 1 -.539-.84l5.9-4.182-5.979 3.452a.5.5 0 0 1 -.542-.839l6.054-4.346-5.957 3.437a.5.5 0 0 1 -.548-.83l6.213-4.607-5.868 3.387a.5.5 0 0 1 -.547-.835l4.628-3.42-3.922 2.264a.5.5 0 0 1 -.568-.818l4.22-3.48-2.68 1.545a.5.5 0 0 1 -.566-.82l1.746-1.416a.52.52 0 0 1 -.158-.168.5.5 0 0 1 .183-.683l3.528-2.037a.5.5 0 0 1 .566.82l-.4.328 2.5-1.441a.5.5 0 0 1 .568.819l-4.226 3.472 6.374-3.68a.5.5 0 0 1 .547.835l-4.624 3.418 5.757-3.324a.5.5 0 0 1 .548.834l-6.217 4.607 7.133-4.118a.5.5 0 0 1 .542.839l-6.052 4.349 6.541-3.776a.5.5 0 0 1 .539.84l-5.9 4.18 15.385-8.883a.5.5 0 0 1 .529.849l-11.112 7.429 12.6-7.276a.5.5 0 0 1 .526.85l-11.354 7.535 12.319-7.112a.5.5 0 0 1 .522.852l-8.815 5.709 9.249-5.34a.5.5 0 0 1 .524.852l-9.759 6.373 10.005-5.776a.5.5 0 0 1 .514.856l-.886.555.726-.419a.5.5 0 0 1 .524.851l-8.646 5.636 8.445-4.875a.5.5 0 0 1 .525.851l-8.244 5.4 7.774-4.479a.5.5 0 0 1 .528.848l-8.759 5.852 7.95-4.59a.5.5 0 0 1 .533.845l-8.813 6.049 7.41-4.277a.5.5 0 0 1 .539.841l-7.654 5.412 5.126-2.959a.5.5 0 0 1 .529.847l-2.779 1.874a.5.5 0 0 1 .174.927l-10.713 6.184a.494.494 0 0 1 -.25.067z" fill="#d3374e"/><path d="m53.225 31.86a9.058 9.058 0 0 0 -5.492.025v-11.332c1.584.7 2.936-.593 3.556-1.951 1.43-2.605-3.61-3.609-5.031-5.2 8.114-4.853 3.753-17.432-5.124-10.96a5.809 5.809 0 0 0 -9.249 1.348c-5.839-5.547-8.771-1.548-14.161 1.958.459-3.448-4.324-1.679-6.381-2.084-3.652.249-1.543 5.293-2.067 7.716-2.276 2.549-12.034 4.92-7.562 9.02.627.581 1.575.392 2.557-.081 2.275 34.822-10.771 31.498 26.367 31.148 3.59 3.159 8.794 8.766 13.823 7.516 10.595-3.355 23.239-20.52 8.764-27.123zm-17.214-30.471c2.821-.888 3.995 3.489 5.654 2 6.407-6.79 10.949 5.23 3.881 9.54-4.2-2.814-8.427-5.591-12.612-8.43a4.217 4.217 0 0 1 3.077-3.11zm-25.287 3.711a.994.994 0 0 1 .167-.737c1.673-.048 3.122-.02 4.764-.026.972.321.537 1.6.621 2.377l-5.552 3.7zm-7.681 14.809c-.125-.821-1.371-1.4-1.317-2.345 2.23-2.685 6.214-4.164 8.962-6.4 2.3-1.56 4.727-3.117 7-4.665 7.671-4.744 6.681-7.336 14.67-.972 5.823 3.894 11.589 7.918 17.507 11.673.956.919-.234 1.943-.716 2.752-.363.395-1.015-.6-1.465-.742-11.351-7.192-21.453-14.55-21.968-14.517-.21.013-22.616 15.221-22.673 15.216zm5.142 30.624c-5.019 2.318-1.446-26.854-2.456-31.078 6.663-4.75 13.286-8.908 20.022-13.477 6.89 4.5 13.61 9.249 20.516 13.723v12.791a9.813 9.813 0 0 0 -3.213 2.658 9.2 9.2 0 0 0 -8.321-3.656c1.013-6.778-10.2-2.932-14.267-3.843-6.157-.483-2.09 18.213-3.19 22.882zm10.539 0v-19.627c-.474-2.7 1.507-2.857 3.627-2.558 3.518.769 11.724-2.5 10.936 3.439-8.4 2.327-8.7 13.089-3.429 18.746zm24.381 7.827c-8.553-3.188-20.691-14.046-12.963-23.453 7.817-6.891 11.653 3.244 13.471 1.666 13.036-14.126 24.676 12.659-.508 21.787z" fill="#262626"/></svg>