<svg id="Master_Line" enable-background="new 0 0 512 512" height="512" viewBox="0 0 512 512" width="512" xmlns="http://www.w3.org/2000/svg"><path d="m141.33 211.79h-124.58l80.55 207.88c2.09 5.39 7.27 8.94 13.05 8.94h146.4 146.4c5.78 0 10.97-3.55 13.05-8.94l80.55-207.88h-124.59" fill="#51a6c0"/><path d="m471.85 276.04-27.26 3.79c-9.86 1.37-18.22 7.96-21.85 17.23l-26.84 68.45c-3.82 9.75-15.77 13.34-24.33 7.3l-16.79-11.83c-8.24-5.81-19.28-5.64-27.34.4l-26.85 20.13c-6.1 4.58-14.72 3.58-19.62-2.26l-14.74-17.58c-5.14-6.13-14.3-6.88-20.37-1.66l-24.59 21.17c-5.59 4.82-13.93 4.6-19.27-.49l-25.1-23.93c-6.2-5.91-15.92-5.96-22.18-.12l-32.19 33.08c-4.16 4.27-6.49 10-6.49 15.97 0 12.65 10.25 22.9 22.9 22.9h117.82 146.4c5.78 0 10.97-3.55 13.05-8.94z" fill="#3a8fa3"/><path d="m257.22 315.04 116.55-47.14c24.19-9.79 16.46-45.86-9.62-44.87l-232.4 8.84c-16.93.64-21 23.93-5.3 30.28z" fill="#3a8fa3"/><path d="m374.86 259.02-114.92-170.9c-3.96-5.89-12.63-5.89-16.6 0l-114.92 170.9 123.03 57.39z" fill="#ee7067"/><path d="m254.16 83.99-46.06 211.18-74.76-36.15z" fill="#df6361"/><path d="m496.75 204.54c-46.24 1.24-96.47 2.61-142.93 4.59-2.2-3.93-4.42-7.86-6.65-11.77-17.09-29.86-35.31-59.49-53.9-88.43-4.64-7.27-9.4-14.46-14.1-21.69-1.68-2.51-3.27-5.1-5.1-7.51-2.23-2.84-5.24-5.18-8.56-6.6-9.85-4.5-22.33-.64-27.97 8.55-27.76 41.69-54.96 83.94-79.83 127.47-33.78-1.45-71.13-2.71-104.59-3.63 1.69.34-42.89-1.81-38.94-.61-3.71 1.31-5.66 5.38-4.35 9.09 24.13 68.36 49.21 136.59 74.59 204.5.36.92 1.25 3.37 1.6 4.23 2.53 7.59 8.66 13.84 16.3 16.33 3.06 1.07 6.41 1.39 9.63 1.35 80.45.77 160.9.85 241.35.36 16.59-.07 33.19-.23 49.78-.39 2.74-.02 5.52-.45 8.12-1.33 7.37-2.41 13.4-8.34 16.02-15.62l.27-.71s.53-1.41.53-1.41c.42-1.26 8.9-23.57 9.49-25.44 22.52-60.45 44.66-121.05 66.16-181.9 1.67-4.54-2.07-9.65-6.92-9.43zm-34.19 70.27-18.31 2.55c-10.74 1.5-19.88 8.7-23.84 18.79l-26.84 68.45c-1.54 3.93-4.74 6.88-8.78 8.09s-8.34.51-11.78-1.92l-16.79-11.83c-6.65-4.69-14.89-5.86-22.33-3.58-16.73-14.03-33.68-27.84-50.6-41.34l-2.04-1.61c53.4-21.59 106.41-44.45 158.39-69.22 15.29-7.31 30.5-14.75 45.54-22.57-7.6 18.03-15.13 36.1-22.62 54.19zm-308.65-36.53 28.43 28.43c-13.21-4.97-26.46-9.91-39.74-14.77 3.82-4.52 7.58-9.07 11.31-13.66zm47.2 35.52c-2.47-.94-4.94-1.87-7.41-2.81l-36.63-36.63c3.44-4.27 6.86-8.56 10.25-12.87l64 64c-10.06-3.93-20.13-7.82-30.21-11.69zm-20.61-69.33 73.7 73.7c.02.02.04.03.05.04v16.32c-3.75-1.49-7.5-2.96-11.25-4.44l-72.57-72.57c3.36-4.31 6.72-8.66 10.07-13.05zm12.98-17.21 60.71 60.71c.02.02.04.03.05.04v23.13l-70.7-70.7c3.33-4.36 6.65-8.76 9.94-13.18zm12.81-17.38 47.95 47.95v23.12l-57.75-57.75c3.29-4.43 6.56-8.87 9.8-13.32zm8.6-11.87c1.35-1.87 2.71-3.77 4.07-5.67l35.28 35.28s.01.01.02.01v23.13l-44.97-44.97c1.86-2.59 3.74-5.19 5.6-7.78zm16.57-23.35 22.78 22.78v23.12l-32.35-32.35c3.18-4.45 6.37-8.98 9.57-13.55zm22.79-14.48-7.54-7.54c2.54-3.71 5.06-7.4 7.54-11.06zm61.31 246.98-16.48 12.36c-5.04 3.78-12.16 2.96-16.2-1.87l-14.74-17.58c-2.92-3.48-7.02-5.6-11.55-5.97s-8.92 1.06-12.37 4.03l-24.59 21.17c-4.64 4-11.48 3.82-15.92-.4l-8.8-8.39c10.4-7.37 20.71-14.86 30.9-22.44 10.46-7.74 20.79-15.65 31.08-23.63 19.36 14.42 38.89 28.73 58.67 42.72zm52.37-121.43c2.04 2.19 5.18-.27 4.01-2.69-4.83-9.61-9.9-19.08-15.1-28.48 9.5.39 19 .74 28.5 1.12 25.14.88 54.25 1.79 81.58 2.55-52.29 16.26-103.7 35.28-154.75 55.04-17.16 6.66-35.6 14.07-52.92 21.15v-192.62c32.69 47.6 70.03 98.96 108.68 143.93zm-124.11-128.9 10.42 10.42v23.12l-19.88-19.88c3.17-4.54 6.33-9.11 9.46-13.66zm-89.18 97.72c-6.51 11.52-12.86 23.14-19 34.86-29.92-10.88-60.02-21.38-90.24-31.13 36.2-1.04 73.8-2.23 109.24-3.73zm-126.44 5.72c44.19 22.15 89.21 42.45 134.45 62.3 22.25 9.63 46.28 19.92 69.39 29.53-16.68 12.83-33.28 26-49.37 39.37-1.38 1.14-2.74 2.3-4.12 3.44-7.15-6.75-18.35-6.79-25.55-.08l-12.89 12.04c-4.1 3.83-10.04 4.77-15.12 2.38l-7.9-3.7c-1.25-.58-2.74-.05-3.33 1.2s-.05 2.74 1.2 3.33l7.9 3.7c6.94 3.25 15.05 1.98 20.66-3.25l12.9-12.04c5.12-4.78 13.01-4.87 18.25-.33-12.81 10.75-25.42 21.71-37.83 32.96-9.18 8.36-18.28 16.82-27.13 25.61-.35-.07-.67-.2-.92-.43-.24-.22-.46-.47-.6-.79-1.33-3.57-9.66-23.71-11.16-27.76-22.54-55.99-45.41-111.84-68.83-167.48zm228.55 195.84c-43.84.06-87.68.18-131.52.57 7.09-4.32 14.1-8.75 21.07-13.23 14.98-9.67 29.81-19.71 44.45-30.01l9.52 9.07c3.26 3.11 7.44 4.67 11.63 4.67 3.9 0 7.82-1.36 11-4.1l24.59-21.17c2.42-2.08 5.52-3.09 8.7-2.83 3.19.26 6.07 1.75 8.12 4.2l14.74 17.58c5.75 6.86 15.87 8.03 23.03 2.66l17.77-13.33c22.84 16.07 46 31.69 69.57 46.51-44.22-.38-88.45-.53-132.67-.59zm150.72-5.97-2.15 5.37c-.34.74-1.1 1.24-1.9 1.28-8.99-8.52-18.14-16.83-27.36-25.05-12.23-10.9-24.72-21.68-37.36-32.34 5.03-.66 10.26.53 14.63 3.61l16.79 11.83c4.71 3.32 10.58 4.27 16.1 2.62 5.52-1.66 9.9-5.69 12-11.05l26.84-68.45c3.3-8.42 10.92-14.42 19.87-15.67l15.4-2.14c-17.86 43.26-35.45 86.63-52.86 129.99z"/><g fill="#fff"><path d="m291.55 169.32c11.79 14.85 21.86 30.9 31.5 47.19 3.18 5.45 6.28 10.94 9.13 16.6.24.47.05 1.04-.42 1.27-.41.21-.9.09-1.17-.26-3.91-4.99-7.56-10.13-11.14-15.33-7.14-10.4-13.93-21.02-20.29-31.91-3.17-5.45-6.23-10.98-9-16.68-.41-.85.78-1.65 1.39-.88z"/><path d="m276.09 144.96c2.4 1.29 4.02 3.2 5.41 5.4.82 1.1 4.84 9.29 1.09 8.14-3.27-2.11-5.56-5.25-7.03-8.78-.34-1-2.01-5.5.53-4.76z"/><path d="m412.54 270.05c-22.74 11.33-46.34 20.74-70.09 29.7-7.93 2.95-15.9 5.81-23.97 8.39-.5.16-1.03-.11-1.19-.61-.14-.45.07-.93.48-1.14 7.61-3.75 15.33-7.21 23.08-10.6 15.52-6.75 31.18-13.12 47.04-19.02 7.93-2.94 15.92-5.75 24.03-8.25.91-.27 1.54 1.06.62 1.53z"/><path d="m449.06 255.31c-4.41 3.9-9.85 6.04-15.42 7.65-1.86.49-3.75.89-5.75 1.03-.55.04-1.02-.38-1.06-.92-.02-.33.12-.63.35-.83 1.53-1.29 3.18-2.31 4.86-3.25 3.37-1.83 6.88-3.33 10.6-4.31 1.86-.48 3.77-.85 5.81-.89.79-.04 1.2 1.01.61 1.52z"/><path d="m91.47 222.79c9.06-2.85 18.49-3.69 27.92-3.97 3.14-.06 6.29-.03 9.46.3.53.05.91.53.86 1.05-.04.4-.32.71-.68.82-3.06.92-6.14 1.54-9.24 2.07-6.19 1.05-12.42 1.7-18.69 1.81-3.14.04-6.29-.03-9.48-.46-.86-.07-.98-1.37-.15-1.62z"/></g></svg>