<svg height="512pt" viewBox="-69 0 512 512.00025" width="512pt" xmlns="http://www.w3.org/2000/svg"><path d="m338.90625 117.675781c-2.710938 0-5.4375-.328125-8.101562-.972656-9.3125-2.253906-18.257813-8.074219-26.589844-17.292969-6.246094-6.894531-11.628906-15.015625-15.992188-24.136718-6.421875-13.453126-10.1875-28.148438-13.832031-42.359376-.148437-.574218-.617187-.816406-1-.816406-.082031 0-.167969.011719-.25.03125-.550781.140625-.882813.703125-.742187 1.253906l.34375 1.328126c.574218 2.21875 1.148437 4.441406 1.738281 6.675781l.710937 2.699219-2.285156 1.597656c-17.148438 11.992187-27.089844 31.09375-35.0625 48.054687l-1.519531 3.234375-3.382813-1.144531c-2.519531-.855469-5.089844-1.632813-7.636718-2.316406l-4.554688-1.222657 1.949219-4.296874c8.914062-19.605469 19.964843-38.921876 33.796875-59.058594 5.734375-8.351563 12.109375-16.824219 21.386718-20.609375 3.769532-1.535157 7.921876-2.28125 12.695313-2.28125 6.230469 0 12.535156 1.238281 19.214844 2.546875l.234375.046875c2.265625.441406 4.605468.898437 6.882812 1.285156 1.171875.199219 2.355469.386719 3.550782.574219 6.46875 1.003906 13.160156 2.039062 18.53125 5.625 5.289062 3.519531 8.757812 9.109375 11.722656 14.621094 6.769531 12.546874 11.75 25.988281 14.816406 39.945312 1.214844 5.554688 2.523438 12.863281 1.867188 20.167969-.648438 7.238281-3.261719 13.703125-7.359376 18.195312-4.992187 5.480469-12.691406 8.625-21.132812 8.625zm0 0" fill="#fff"/><path d="m290.433594 505.960938c-17.46875 0-34.890625-9.070313-45.46875-23.667969-10.421875-14.378907-14.0625-33.625-9.738282-51.488281 2.523438-10.4375 7.722657-20.785157 15.445313-30.757813 5.929687-7.675781 12.382813-13.828125 19.179687-18.285156 5.90625-3.890625 12.464844-6.757813 19.488282-8.515625l5.144531-1.289063-.171875 5.300781c-.222656 6.738282-.453125 12.304688-.734375 17.511719-.03125.539063.367187 1.003907.894531 1.066407h.121094c.542969 0 .988281-.421876 1.015625-.957032.34375-6.382812.617187-12.945312.808594-19.507812l.101562-3.589844 3.582031-.28125c1.628907-.128906 3.273438-.191406 4.894532-.191406 8.089844 0 16 1.59375 22.871094 4.617187l3.953124 1.738281-2.035156 3.808594c-2.839844 5.308594-5.613281 10.742188-8.253906 16.148438-.242188.5-.03125 1.113281.472656 1.359375.152344.074219.292969.109375.441406.109375.296876 0 .71875-.152344.925782-.578125 2.570312-5.265625 5.273437-10.5625 8.035156-15.738281l2.210938-4.140626 3.738281 2.839844c.597656.453125 1.179687.914063 1.753906 1.402344 5.394531 4.542969 10.007813 9.945312 13.699219 16.050781.246094.417969.457031.792969.671875 1.171875l1.894531 3.347656-3.148438 2.082032c-4.371093 3.308594-9.101562 6.242187-14.023437 8.699218-.3125.15625-.453125.40625-.511719.585938-.0625.183594-.101562.464844.054688.777344.207031.417968.605468.566406.910156.566406.160156 0 .308594-.035156.453125-.105469 4.445313-2.21875 8.804687-4.878906 12.964844-7.90625l4.222656-3.078125 1.867187 4.882813c3.140626 8.21875 4.742188 17.019531 4.765626 26.160156.042968 19.4375-7.796876 38.050781-20.960938 49.785156-6.011719 5.34375-13.628906 9.847657-23.285156 13.769531-10.164063 4.117188-19.152344 6.175782-27.480469 6.292969-.253906.003907-.515625.003907-.769531.003907zm-3.511719-96.121094c-4.898437 0-9.183594.769531-13.097656 2.355468-8.226563 3.332032-14.980469 9.90625-18.535157 18.035157-2.523437 5.789062-3.519531 12.492187-2.875 19.382812.59375 6.324219 2.492188 12.597657 5.648438 18.644531 3.90625 7.476563 9.195312 13.300782 15.296875 16.835938 5.191406 3.011719 11.367187 4.601562 17.863281 4.601562 1.492188 0 2.960938-.078124 4.355469-.234374 7.132813-.792969 14.464844-3.546876 21.210937-7.96875 9.855469-6.464844 16.367188-15.21875 18.328126-24.640626 2.109374-10.167968-1.101563-21.429687-8.585938-30.125-6.636719-7.699218-16.148438-13.511718-24.820312-15.171874-4.6875-.890626-9.730469-1.714844-14.789063-1.714844zm0 0" fill="#fff"/><path d="m291.203125 487.664062c-6.121094 0-11.941406-1.5-16.828125-4.339843-5.757812-3.332031-10.773438-8.871094-14.507812-16.015625-3.03125-5.804688-4.859376-11.824219-5.425782-17.890625-.613281-6.550781.324219-12.902344 2.714844-18.375 3.355469-7.652344 9.710938-13.832031 17.4375-16.957031 3.621094-1.472657 7.671875-2.191407 12.371094-2.191407 4.9375 0 9.820312.800781 14.363281 1.660157 8.125 1.550781 17.40625 7.246093 23.65625 14.5 6.976563 8.105468 10.09375 18.976562 8.132813 28.375-1.820313 8.773437-8.183594 17.285156-17.449219 23.363281-6.457031 4.234375-13.480469 6.878906-20.3125 7.640625-1.378907.152344-2.777344.230468-4.152344.230468zm0 0" fill="#ff8984"/><path d="m287.996094 345.347656c-6.820313-35.6875-24.320313-69.570312-49.28125-95.402344l-4.050782-4.195312 5.375-2.269531c3.332032-1.40625 6.492188-2.9375 9.390626-4.550781l1.976562-1.097657 1.960938 1.128907c19.625 11.289062 39.941406 23.894531 53.792968 42.800781 5.898438 8.054687 9.714844 16.179687 11.34375 24.15625 1.894532 9.3125.753906 18.503906-3.21875 25.882812-4.472656 8.320313-12.878906 14.566407-22.492187 16.699219l-4.023438.894531zm0 0" fill="#fff"/><path d="m185.496094 251.519531c-15.3125 0-29.269532-2.40625-41.480469-7.15625-14.582031-5.664062-27.246094-15.203125-35.65625-26.855469l-4.660156-6.457031 7.964843.117188c1.378907.019531 2.757813.050781 4.136719.101562.570313 0 1.019531-.433593 1.035157-.980469.011718-.359374-.136719-.597656-.269532-.734374-.128906-.140626-.355468-.308594-.703125-.320313-2.363281-.082031-4.820312-.125-7.320312-.125-.925781 0-1.855469.007813-2.78125.019531l-2.601563.03125-1.082031-2.367187c-1.867187-4.074219-3.339844-8.496094-4.378906-13.140625l-1.40625-6.296875 6.265625 1.539062c2.054687.503907 4.230468 1.070313 6.652344 1.722657.101562.027343.1875.042968.273437.042968.371094 0 .835937-.238281.980469-.761718.089844-.335938-.003906-.601563-.097656-.769532-.097657-.167968-.285157-.386718-.625-.480468-3.191407-.863282-6.65625-1.722657-10.582032-2.632813l-2.875-.664063-.210937-2.941406c-.699219-9.640625.214843-19.984375 2.710937-30.746094 2.210938-9.5 5.046875-16.652343 8.921875-22.511718 4.671875-7.046875 11.648438-13.34375 21.332031-19.25 9.792969-5.972656 20.484376-10.484375 31.78125-13.414063 9.609376-2.488281 19.15625-3.371093 30.535157-3.933593l2.441406-.121094c2.949219-.152344 6.011719-.3125 9.015625-.3125 3.625 0 6.695312.226562 9.65625.710937 20.964844 3.4375 39.277344 11.605469 52.964844 23.621094 17.15625 15.070313 26.757812 36.390625 25.683594 57.035156l-.171876 3.277344-3.246093.472656c-5.125.746094-10.113281 1.570313-14.828125 2.453125-.34375.0625-.546875.269532-.65625.425782-.105469.160156-.222656.417968-.160156.753906.101562.550781.578124.839844 1 .839844.113281 0 .160156-.007813.160156-.007813 3.542968-.664063 7.382812-1.3125 11.757812-1.988281l5.875-.90625-1.371094 5.785156c-1.136718 4.785156-2.878906 9.648438-5.175781 14.441406l-1.253906 2.613282-2.875-.375c-6.523437-.851563-13.089844-1.464844-19.515625-1.8125h-.003906c-.613282 0-1.035156.40625-1.066406.964843-.027344.5625.402343 1.046875.964843 1.078125 4.96875.265625 10.105469.699219 15.265625 1.289063l6.460938.738281-3.570313 5.433594c-7.101562 10.804687-16.675781 20.035156-27.695312 26.6875-13.445313 8.117187-30.292969 13.199218-50.074219 15.105468-5.265625.507813-10.460938.761719-15.441406.761719zm-22.960938-45.988281c-.3125 0-.746094.160156-.941406.613281-1.339844 3.113281-.773438 7.058594 1.523438 10.558594 3.207031 4.886719 8.929687 7.921875 14.9375 7.921875.546874 0 1.121093-.027344 1.75-.089844 4.160156-.410156 8.210937-2.371094 11.398437-5.515625l2.507813-2.472656 2.769531 2.171875c3.605469 2.824219 8.09375 4.378906 12.640625 4.378906 1.117187 0 2.214844-.089844 3.257812-.265625 7.253906-1.226562 13.449219-6.53125 15.78125-13.511719.175782-.53125-.117187-1.121093-.65625-1.300781-.09375-.03125-.199218-.046875-.308594-.046875-.355468 0-.816406.21875-.980468.703125-2.046875 6.167969-7.75 11.054688-14.183594 12.144531-.933594.160157-1.902344.242188-2.867188.242188-4.464843 0-8.953124-1.710938-12.316406-4.691406l-2.046875-1.816406.953125-2.570313c2.105469-5.671875 1.707032-11.976563 1.039063-17.398437l-.484375-3.917969 3.914062-.535157c1.089844-.148437 2.03125-.320312 2.886719-.523437 3.324219-.792969 5.789063-2.011719 7.550781-3.726563 4.191406-4.078124 4.488282-11.273437.675782-16.382812-3.125-4.1875-8.167969-6.492188-14.191407-6.492188-.796875 0-1.617187.039063-2.4375.121094-.496093.050782-1.003906.09375-1.503906.140625l-.832031.074219c-5.914063.492188-11.46875.953125-15.980469 6.171875-1.960937 2.269531-2.996094 4.722656-2.996094 7.09375.007813 3.921875 2.863281 7.664063 7.839844 10.265625 3.042969 1.585938 6.398437 2.660156 9.972656 3.1875l2.992188.441406.390625 2.996094c.863281 6.609375 1.464844 13.558594-1.476563 19.519531-2.582031 5.203125-7.882812 8.925781-13.507812 9.488281-.492188.050782-.996094.074219-1.5.074219-5.285157.003907-10.5-2.746093-13.285157-7-1.886718-2.878906-2.402343-6.183593-1.347656-8.621093.140625-.320313.082032-.601563.011719-.777344-.070313-.179688-.222656-.425782-.542969-.5625-.136718-.0625-.273437-.089844-.40625-.089844zm63.152344-64.167969c-1.601562 0-3.113281.582031-4.378906 1.683594-1.394532 1.210937-2.183594 3.046875-2.109375 4.914063.078125 1.792968 1.019531 3.613281 2.453125 4.738281 1.1875.925781 2.699218 1.417969 4.351562 1.417969 1.332032 0 2.703125-.34375 3.964844-.996094 1.476562-.761719 2.433594-1.765625 2.84375-2.984375.398438-1.210938.242188-2.601563-.484375-4.234375l-.113281-.253906c-1.015625-2.097657-2.910156-3.632813-5.109375-4.128907-.457031-.101562-.941407-.15625-1.417969-.15625zm-73.640625 4.539063c-.726563 1.632812-.882813 3.023437-.476563 4.25.402344 1.203125 1.359376 2.207031 2.839844 2.972656 1.253906.648438 2.621094.992188 3.960938.992188 1.648437 0 3.15625-.496094 4.363281-1.4375 1.429687-1.109376 2.363281-2.925782 2.441406-4.734376.074219-1.851562-.71875-3.695312-2.117187-4.917968-1.25-1.082032-2.769532-1.660156-4.367188-1.660156-.480468 0-.960937.050781-1.433594.15625-2.203124.496093-4.097656 2.035156-5.105468 4.136718zm0 0" fill="#fff"/><path d="m265.421875 113.75c-6.789063-5.710938-14.660156-10.554688-23.425781-14.402344l-3.765625-1.652344 1.753906-3.714843c7.738281-16.402344 16.851563-33.125 31.015625-44.339844l4.652344-3.6875 1.667968 5.699219c2.851563 9.738281 5.734376 17.519531 9.070313 24.484375 3.425781 7.183593 7.535156 13.828125 12.214844 19.761719l2.191406 2.785156-2.496094 2.511718c-7.132812 7.175782-16.535156 12.148438-26.476562 14-.105469.023438-.195313.058594-.292969.121094l-6.109375 3.785156zm0 0" fill="#ff8984"/><path d="m201.691406 497.136719c-10.472656 0-20.976562-1.660157-31.132812-3.261719l-.242188-.039062c-8.730468-1.390626-17.757812-2.828126-25.738281-6.859376l-3.992187-2.019531 2.453124-3.742187c9.523438-14.535156 12.707032-33.558594 8.515626-50.886719-2.597657-10.722656-7.917969-21.332031-15.8125-31.535156-6.058594-7.832031-12.671876-14.136719-19.664063-18.734375-8.429687-5.546875-18.351563-9.132813-28.699219-10.371094l-3.71875-.445312.199219-3.738282c1.089844-20.574218 7.539063-42.347656 18.652344-62.964844 9.652343-17.875 22.898437-35.488281 40.503906-53.84375l1.761719-1.835937 2.414062.820313c11.488282 3.898437 24.378906 5.875 38.3125 5.875 5.078125 0 10.332032-.257813 15.625-.769532 10.421875-1.007812 20.160156-2.914062 28.949219-5.664062l2.667969-.835938 1.765625 2.300782c31.636719 31.324218 51.445312 74.839843 54.324219 119.382812l.203124 3.175781-3.050781.914063c-6.222656 1.859375-12.03125 4.550781-17.265625 8-7.007812 4.613281-13.621094 10.914062-19.664062 18.734375-7.898438 10.203125-13.21875 20.8125-15.816406 31.535156-4.375 18.070313-.789063 37.683594 9.59375 52.457031l2.886718 4.105469-4.648437 1.898437c-11.996094 4.898438-23.679688 7.671876-34.726563 8.230469-1.507812.078125-3.070312.117188-4.65625.117188zm-8.273437-215.332031c-10.511719 0-20.644531 3.359374-30.113281 9.980468-7.648438 5.347656-14.277344 12.265625-19.171876 20.007813-8.8125 13.929687-12.496093 31.285156-10.109374 47.625 1.660156 11.355469 6.027343 21.054687 12.628906 28.054687 5.351562 5.660156 17.753906 15.164063 40.679687 15.164063h.078125c.398438 0 .804688 0 1.207032-.007813 12.039062-.191406 22.464843-2.816406 31.011718-7.796875 9.578125-5.582031 17.707032-14.894531 22.898438-26.222656 8.277344-18.042969 8.195312-38.871094-.222656-55.714844-7.074219-14.144531-20.269532-25.066406-35.296876-29.210937-4.515624-1.246094-9.089843-1.878906-13.589843-1.878906zm0 0" fill="#fff"/><path d="m187.433594 400.59375c-16.257813 0-30.578125-5.292969-39.296875-14.523438-7.988281-8.46875-10.988281-19.332031-12.101563-26.957031-2.316406-15.847656 1.265625-32.699219 9.828125-46.234375 4.746094-7.519531 11.183594-14.234375 18.609375-19.421875 9.148438-6.390625 18.855469-9.632812 28.84375-9.632812 4.324219 0 8.75.613281 13.148438 1.824219 14.464844 3.984374 27.179687 14.511718 34.015625 28.15625 8.019531 16.050781 8.09375 36.726562.199219 53.957031-5.027344 10.953125-12.863282 19.9375-22.074219 25.300781-8.265625 4.8125-18.359375 7.34375-30 7.523438-.390625.003906-.785157.007812-1.171875.007812zm0 0" fill="#ff8984"/><path d="m195.917969 188.398438c-4.804688 0-9.558594-1.152344-13.746094-3.335938-4.199219-2.191406-6.71875-5.351562-6.738281-8.453125 0-2.375 1.363281-4.445313 2.507812-5.765625 3.941406-4.566406 8.863282-4.988281 14.5625-5.472656l.3125-.027344c.695313-.0625 1.394532-.121094 2.105469-.191406.792969-.074219 1.511719-.105469 2.210937-.105469 5.460938 0 9.808594 1.964844 12.570313 5.683594 3.164063 4.222656 2.960937 10.367187-.464844 13.6875-1.492187 1.460937-3.65625 2.511719-6.601562 3.203125-2.167969.515625-4.433594.777344-6.71875.777344zm0 0" fill="#ff8984"/><g fill="#fff"><path d="m30.382812 121.980469c-4.457031 0-8.429687-1.078125-11.800781-3.199219-5.511719-3.476562-8.484375-9.164062-10.003906-13.320312-5.867187-15.976563-.398437-33.789063 5.023437-47.523438 5.082032-12.84375 11.175782-25.359375 18.109376-37.203125 1.953124-3.339844 3.960937-6.480469 7.0625-8.164063 1.996093-1.097656 4.289062-1.480468 6.859374-1.839843 16.171876-2.265625 32.644532-2.570313 46.625-2.570313 1.953126 0 3.875.003906 5.765626.015625 5.351562.019531 10.097656.234375 13.960937 2.597657 3.296875 2.027343 5.519531 5.386718 7.878906 9.242187 13.8125 22.566406 26.585938 46.242187 37.964844 70.363281l1.980469 4.191406-4.441406 1.34375c-1.6875.507813-3.394532 1.074219-5.21875 1.726563l-3.816407 1.367187-1.316406-3.839843c-7.105469-20.773438-21.84375-39.378907-40.429687-51.046875l-2.679688-1.679688 1.019531-2.996094c.839844-2.46875 1.574219-4.75 2.246094-6.972656.101563-.332031.015625-.605468-.078125-.777344-.089844-.167968-.269531-.390624-.605469-.492187-.097656-.027344-.195312-.042969-.292969-.042969-.363281 0-.824218.226563-.976562.730469-7.066406 23.503906-18.332031 45.226563-33.480469 64.558594-5.78125 7.375-13.757812 16.511719-24.222656 21.761719-4.867187 2.433593-10.242187 3.769531-15.132813 3.769531zm0 0"/><path d="m93.652344 505.957031c-8.386719-.117187-17.371094-2.179687-27.523438-6.292969-9.664062-3.921874-17.28125-8.425781-23.292968-13.769531-13.171876-11.734375-21.007813-30.347656-20.964844-49.785156.023437-9.113281 1.625-17.914063 4.761718-26.15625l1.863282-4.890625 4.230468 3.082031c4.136719 3.011719 8.5 5.671875 12.964844 7.90625.179688.089844.34375.105469.453125.105469.289063 0 .703125-.144531.902344-.550781.164063-.328125.121094-.609375.0625-.796875-.0625-.179688-.199219-.425782-.503906-.578125-4.882813-2.4375-9.566407-5.335938-13.929688-8.625l-3.480469-1.746094 2.125-3.765625c.210938-.375.425782-.75.644532-1.128906 3.71875-6.144532 8.328125-11.546875 13.730468-16.097656.578126-.488282 1.164063-.953126 1.785157-1.417969l3.734375-2.785157 2.1875 4.113282c2.914062 5.476562 5.613281 10.769531 8.027344 15.742187.203124.414063.625.566407.921874.566407.144532 0 .289063-.035157.421876-.101563.523437-.253906.734374-.863281.488281-1.371094-2.632813-5.394531-5.40625-10.828125-8.25-16.144531l-2.03125-3.808594 3.949219-1.738281c6.871093-3.019531 14.777343-4.617187 22.871093-4.617187 1.621094 0 3.265625.0625 4.894531.191406l3.578126.28125.105468 3.589844c.191406 6.511718.460938 13.074218.808594 19.5.027344.542968.472656.964843 1.015625.964843h.121094c.53125-.0625.929687-.535156.902343-1.078125-.292968-5.457031-.535156-11.183594-.742187-17.5l-.175781-5.304687 5.148437 1.292969c7.035157 1.769531 13.597657 4.636718 19.503907 8.515624 6.804687 4.476563 13.253906 10.628907 19.167968 18.289063 7.722656 9.972656 12.917969 20.320313 15.441406 30.753906 4.320313 17.863281.679688 37.109375-9.738281 51.488281-10.578125 14.601563-28.027343 23.667969-45.539062 23.667969zm4.222656-96.117187c-5.058594 0-10.101562.824218-14.796875 1.714844-8.660156 1.648437-18.164063 7.460937-24.804687 15.171874-7.492188 8.691407-10.703126 19.953126-8.59375 30.128907 1.960937 9.421875 8.472656 18.171875 18.335937 24.636719 6.738281 4.425781 14.070313 7.179687 21.207031 7.96875 1.394532.15625 2.855469.234374 4.351563.234374 6.496093 0 12.675781-1.589843 17.875-4.601562 6.089843-3.539062 11.378906-9.363281 15.289062-16.839844 3.152344-6.042968 5.050781-12.316406 5.640625-18.640625.648438-6.90625-.34375-13.609375-2.871094-19.382812-3.554687-8.132813-10.3125-14.707031-18.535156-18.039063-3.914062-1.582031-8.199218-2.351562-13.097656-2.351562zm0 0"/><path d="m79.601562 348.371094c-6.914062-1.617188-13.351562-5.78125-17.660156-11.429688-4.324218-5.65625-6.640625-12.988281-6.355468-20.117187.277343-7.273438 3.066406-14.878907 8.773437-23.933594 12.328125-19.539063 34.394531-38.867187 60.558594-53.042969l2.375-1.71875 2.269531 1.378906c2.472656 1.5 5.175781 2.949219 8.042969 4.300782l4.964843 2.34375-3.757812 4.007812c-16.414062 17.5-28.871094 34.316406-38.085938 51.414063-7.789062 14.429687-13.273437 29.136719-16.292968 43.714843l-.835938 4.015626zm0 0"/></g><path d="m115.222656 115.164062c-13.597656-4.007812-25.453125-13.109374-32.859375-25.148437h-1.710937l-.007813-5.203125.648438-.996094c7.191406-11.007812 13.296875-22.761718 18.144531-34.933594l1.820312-4.570312 4.101563 2.714844c17.714844 11.71875 31.179687 29.234375 37.917969 49.316406l1.152344 3.433594-3.308594 1.484375c-4.628906 2.078125-9.050782 4.398437-13.148438 6.890625-3.324218 2.035156-6.40625 4.164062-9.148437 6.320312l-1.625 1.273438zm0 0" fill="#ff8984"/><path d="m93.589844 487.664062c-1.375 0-2.769532-.078124-4.144532-.230468-6.835937-.761719-13.859374-3.40625-20.316406-7.644532-9.265625-6.074218-15.628906-14.585937-17.449218-23.359374-1.957032-9.394532 1.15625-20.269532 8.132812-28.371094 6.265625-7.261719 15.546875-12.953125 23.652344-14.5 4.546875-.863282 9.429687-1.664063 14.367187-1.664063 4.703125 0 8.75.71875 12.378907 2.195313 7.722656 3.121094 14.078124 9.300781 17.429687 16.953125 2.390625 5.472656 3.332031 11.824219 2.714844 18.378906-.566407 6.0625-2.394531 12.082031-5.425781 17.886719-3.730469 7.144531-8.75 12.683594-14.511719 16.019531-4.882813 2.835937-10.703125 4.335937-16.828125 4.335937zm0 0" fill="#ff8984"/><path d="m228.777344 204.230469c-2.625-.875-5.472656.542969-6.351563 3.171875-1.605469 4.820312-6.050781 8.625-11.058593 9.472656-4.1875.710938-8.6875-.675781-11.863282-3.503906 2.398438-6.453125 1.984375-13.4375 1.257813-19.28125 1.101562-.148438 2.199219-.335938 3.277343-.59375 4.035157-.957032 7.113282-2.511719 9.417969-4.753906 5.597657-5.441407 6.074219-14.945313 1.085938-21.632813-4.398438-5.898437-11.773438-8.800781-20.226563-7.964844-.78125.078125-1.550781.144531-2.316406.207031-6.125.519532-13.066406 1.105469-18.632812 7.542969-2.605469 3.015625-3.976563 6.371094-3.972657 9.710938.011719 5.464843 3.648438 10.5 9.984375 13.808593 3.492188 1.824219 7.320313 3.027344 11.246094 3.605469.871094 6.644531 1.214844 12.53125-1.105469 17.226563-1.976562 3.996094-6.027343 6.851562-10.320312 7.28125-4.234375.425781-8.777344-1.691406-11.039063-5.140625-1.121094-1.710938-1.53125-3.65625-1.019531-4.839844 1.097656-2.542969-.070313-5.496094-2.617187-6.597656-2.542969-1.101563-5.496094.070312-6.597657 2.613281-1.882812 4.347656-1.195312 9.707031 1.839844 14.332031 3.976563 6.054688 10.980469 9.730469 18.28125 9.730469.710937 0 1.429687-.035156 2.144531-.109375 5.148438-.511719 10.082032-2.960937 13.824219-6.644531 4.28125 3.351562 9.648437 5.230468 15.105469 5.230468 1.304687 0 2.613281-.105468 3.917968-.328124 8.695313-1.46875 16.117188-7.828126 18.910157-16.191407.878906-2.628906-.542969-5.472656-3.171875-6.351562zm-49.339844-27.644531c-.003906-.863282.554688-2 1.523438-3.125 2.757812-3.191407 6.140624-3.621094 11.882812-4.105469.8125-.070313 1.632812-.136719 2.460938-.21875.535156-.054688 1.15625-.09375 1.828124-.09375 2.925782 0 6.867188.722656 9.363282 4.066406 1.933594 2.59375 1.914062 6.535156-.039063 8.4375-.96875.941406-2.515625 1.65625-4.734375 2.179687-5.886718 1.394532-12.335937.585938-17.695312-2.214843-2.742188-1.429688-4.589844-3.410157-4.589844-4.925781zm0 0"/><path d="m329.378906 122.574219c3.144532.757812 6.320313 1.128906 9.445313 1.128906 10 0 19.480469-3.777344 25.679687-10.585937 6.378906-7.007813 8.367188-15.679688 8.90625-21.722657.730469-8.148437-.675781-16.039062-1.984375-22-3.175781-14.488281-8.355469-28.457031-15.390625-41.519531-3.179687-5.90625-7.292968-12.519531-13.699218-16.785156-6.464844-4.308594-13.828126-5.457032-20.949219-6.566406-1.160157-.179688-2.320313-.359376-3.46875-.554688-2.28125-.386719-4.558594-.832031-6.964844-1.304688-11.679687-2.289062-23.753906-4.65625-35.351563.070313-10.828124 4.414063-18.109374 14.070313-24.085937 22.777344-14.457031 21.058593-25.96875 41.328125-35.15625 61.878906-.96875-.179687-1.933594-.363281-2.910156-.523437-6.988281-1.144532-13.296875-.816407-19.976563-.46875l-2.40625.125c-9.894531.484374-18.46875 1.226562-26.953125 3.003906-11.632812-24.832032-24.785156-49.277344-39.097656-72.65625-2.144531-3.5-5.074219-8.289063-9.859375-11.234375-5.609375-3.445313-12.25-3.476563-17.101562-3.5-16.183594-.078125-34.988282.054687-53.269532 2.613281-2.914062.410156-6.007812.941406-8.898437 2.515625-4.457031 2.421875-7.082031 6.480469-9.390625 10.425781-7.105469 12.140625-13.332032 24.9375-18.503906 38.027344-5.820313 14.722656-11.660157 33.917969-5.085938 51.824219 1.847656 5.042969 5.511719 11.972656 12.457031 16.351562 4.402344 2.773438 9.605469 4.15625 15.140625 4.15625 5.726563 0 11.804688-1.480469 17.710938-4.441406 11.5625-5.789063 20.117187-15.5625 26.28125-23.429687 1.335937-1.707032 2.628906-3.433594 3.90625-5.175782 7.164062 10.785156 17.570312 19.238282 29.582031 24.039063-1.996094 2.183593-3.761719 4.4375-5.308594 6.769531-4.28125 6.472656-7.386719 14.25-9.765625 24.484375-1.921875 8.253906-3.464844 18.609375-3.019531 29.644531-11.613281-2.234375-23.371094-3.761718-35.148437-4.550781-2.789063-.191406-5.160157 1.910156-5.34375 4.675781-.1875 2.765625 1.90625 5.15625 4.671874 5.34375 12.363282.824219 24.703126 2.515625 36.867188 4.996094.8125 5.027344 2.113281 10.101562 4.046875 15.101562-13.992187.828126-27.894531 2.949219-41.527344 6.363282-2.6875.671875-4.320312 3.398437-3.648437 6.089844.570312 2.277343 2.617187 3.800781 4.867187 3.800781.402344 0 .8125-.050781 1.222657-.152344 14.375-3.601563 29.058593-5.699219 43.832031-6.289063 4.660156 7.960938 11.019531 15.171876 18.652343 21.25-25.453124 14.464844-46.863281 33.648438-59.128906 53.101563-6.289062 9.976563-9.375 18.53125-9.703125 26.925781-.339843 8.621094 2.355469 17.152344 7.589844 24.011719 5.234375 6.863281 12.75 11.714844 21.15625 13.664063l.492187.113281c.007813.003906.019532.003906.027344.007812-.484375 3.625-.804687 7.246094-.992187 10.859375-13.871094.339844-26.292969 4.804688-36.019531 13-5.917969 4.984375-10.960938 10.890625-14.984376 17.558594-7.160156 11.863281-10.957031 25.792969-10.984374 40.285156-.042969 21.152344 8.550781 41.453125 22.988281 54.304688 6.527343 5.8125 14.714843 10.671875 25.035156 14.855468 10.875 4.410157 20.574219 6.613282 29.65625 6.738282.257813.003906.511719.003906.769531.003906 17.082032 0 34.027344-7.703125 45.847656-20.550781 9.308594 5.1875 19.957032 6.878906 29.371094 8.367187 10.449219 1.65625 21.207032 3.359375 32.148438 3.359375 1.660156 0 3.328125-.039062 4.996094-.125 12.660156-.640625 25.988281-3.976562 39.640624-9.90625 11.71875 11.828125 27.910157 18.855469 44.226563 18.855469.253906 0 .511719-.003906.769531-.003906 9.082032-.125 18.78125-2.328125 29.65625-6.738282 10.316406-4.183593 18.507813-9.042968 25.035156-14.855468 14.433594-12.855469 23.027344-33.15625 22.988282-54.304688-.027344-14.492187-3.828125-28.421875-10.984375-40.285156-4.027344-6.671875-9.070313-12.578125-14.984375-17.558594-10.128906-8.53125-23.171875-13.035156-37.738282-13.035156-.097656 0-.195312 0-.292968 0-3.414063.015625-6.828125.285156-10.207032.792969-.28125-3.839844-.6875-7.671875-1.210937-11.484375 11.445313-2.386719 21.65625-9.820313 27.058594-19.863282 4.640625-8.621093 5.996093-19.257812 3.8125-29.953124-1.796875-8.828126-5.964844-17.746094-12.382813-26.511719-13.386718-18.277344-32.332031-30.84375-51.167968-41.867188 10.273437-7.503906 18.9375-17.078125 25.378906-28.082031 15.027344 2.386719 29.820312 6.132812 44.207031 11.214844.554687.195312 1.117187.289062 1.671875.289062 2.070312 0 4.003906-1.289062 4.734375-3.351562.921875-2.613282-.449219-5.480469-3.0625-6.402344-13.941406-4.921875-28.246094-8.636719-42.773437-11.128906 2.40625-5.527344 4.117187-11.105469 5.128906-16.691406 13.105468-1.652344 26.316406-2.628907 39.480468-2.90625 2.769532-.054688 4.96875-2.351563 4.910157-5.121094-.054688-2.738282-2.292969-4.914063-5.015625-4.914063-.035156 0-.070313 0-.109375 0-12.734375.269531-25.511719 1.179688-38.203125 2.699219.410156-18.175781-6.792969-36.976562-19.699219-51.867188 9.195313-2.539062 17.753906-7.445312 24.566406-14.125 8.519531 8.707032 17.6875 14.304688 27.296875 16.628907zm-59.957031-10.660157s-.003906-.003906-.003906-.003906c-7.429688-6.527344-16.132813-11.972656-25.816407-16.226562 7.628907-16.164063 16.421876-32.246094 29.875-42.90625 2.5 8.507812 5.421876 16.972656 9.300782 25.09375 3.585937 7.5 7.84375 14.367187 12.679687 20.507812-6.566406 6.609375-15.199219 11.179688-24.359375 12.882813-.613281.113281-1.171875.347656-1.675781.652343zm-9.628906-80.722656c5.386719-7.847656 11.339843-15.796875 19.601562-19.160156 8.816407-3.597656 18.929688-1.617188 29.628907.480469 2.363281.464843 4.808593.945312 7.21875 1.355469 1.191406.199218 2.394531.386718 3.597656.574218 6.328125.988282 12.304687 1.917969 16.929687 5 4.558594 3.035156 7.707031 8.136719 10.429688 13.191406 6.589843 12.242188 11.445312 25.335938 14.421875 38.914063 1.152344 5.257813 2.398437 12.164063 1.789062 18.949219-.570312 6.371094-2.816406 12.007812-6.328125 15.859375-5.707031 6.269531-15.660156 8.800781-25.339843 6.457031-8.503907-2.054688-16.765626-7.46875-24.5625-16.085938-5.992188-6.625-11.15625-14.425781-15.34375-23.183593-6.261719-13.109375-9.984376-27.628907-13.582032-41.667969-.6875-2.6875-3.425781-4.304688-6.109375-3.617188-2.6875.6875-4.304687 3.421876-3.617187 6.109376.683594 2.667968 1.371094 5.351562 2.082031 8.042968-17.257813 12.070313-27.582031 30.886719-36.386719 49.628906-2.570312-.871093-5.195312-1.671874-7.875-2.390624 8.800782-19.363282 19.769532-38.53125 33.445313-58.457032zm-193.199219 62.792969c-5.515625 7.042969-13.101562 15.753906-22.875 20.648437-6.523438 3.265626-15.992188 5.183594-23 .765626-4.554688-2.871094-7.074219-7.738282-8.390625-11.3125-5.402344-14.726563-.167969-31.613282 5-44.679688 4.988281-12.613281 10.988281-24.945312 17.832031-36.648438 1.660156-2.839843 3.332032-5.484374 5.523438-6.675781 1.421875-.773437 3.328125-1.085937 5.496094-1.390625 17.617187-2.46875 35.988281-2.59375 51.828124-2.519531 4.746094.023437 8.921876.191406 11.890626 2.015625 2.535156 1.558594 4.390624 4.386719 6.554687 7.921875 13.792969 22.53125 26.480469 46.0625 37.757813 69.972656-1.816407.554688-3.617188 1.160157-5.402344 1.792969-7.441406-21.75-22.625-40.921875-42.097656-53.140625.804687-2.351563 1.578124-4.714844 2.296874-7.105469.796876-2.652344-.707031-5.453125-3.363281-6.25-2.652343-.800781-5.453125.703125-6.25 3.359375-6.933593 23.035157-17.964843 44.316407-32.800781 63.246094zm18.054688-7.964844c0-.003906-.003907-.007812-.007813-.011719 7.351563-11.246093 13.542969-23.160156 18.515625-35.640624 16.839844 11.136718 29.90625 28.109374 36.324219 47.246093-4.675781 2.101563-9.21875 4.464844-13.582031 7.128907-3.496094 2.128906-6.667969 4.320312-9.539063 6.585937-13.375-3.941406-24.910156-13.132813-31.710937-25.308594zm-19.527344 248.5c-3.765625-4.9375-5.785156-11.328125-5.542969-17.53125.257813-6.5625 2.855469-13.539062 8.167969-21.964843 11.976562-18.992188 33.546875-37.84375 59.183594-51.722657.203124-.109375.375-.246093.554687-.375 2.695313 1.632813 5.511719 3.128907 8.414063 4.496094-16.628907 17.722656-29.3125 34.847656-38.695313 52.25-8.019531 14.867187-13.589844 29.867187-16.683594 44.808594-6.03125-1.410157-11.640625-5.039063-15.398437-9.960938zm29.167968 167.441407c-.210937 0-.425781 0-.636718-.003907-7.8125-.105469-16.324219-2.070312-26.023438-6.003906-9.234375-3.742187-16.476562-8.011719-22.132812-13.050781-12.324219-10.972656-19.660156-28.464844-19.621094-46.785156.015625-8.632813 1.554688-17.019532 4.496094-24.742188 4.277344 3.105469 8.808594 5.890625 13.535156 8.25.71875.359375 1.484375.527344 2.238281.527344 1.839844 0 3.613281-1.019532 4.492188-2.777344 1.238281-2.480469.230469-5.496094-2.25-6.734375-4.75-2.371094-9.304688-5.199219-13.53125-8.410156-.035157-.027344-.078125-.042969-.113281-.070313.222656-.386718.441406-.777344.671874-1.160156 3.457032-5.726562 7.78125-10.796875 12.855469-15.070312.523438-.441407 1.054688-.867188 1.597657-1.277344 2.75 5.152344 5.421874 10.382812 7.964843 15.609375.871094 1.785156 2.660157 2.820312 4.519531 2.820312.734376 0 1.484376-.160156 2.191407-.503906 2.492187-1.214844 3.53125-4.21875 2.316406-6.710937-2.652344-5.453126-5.445313-10.90625-8.316406-16.277344 6.484375-2.851563 13.78125-4.285156 21.261719-4.285156 1.519531 0 3.050781.066406 4.578124.183593.195313 6.492188.464844 13.078125.8125 19.597657.140626 2.679687 2.359376 4.753906 5.007813 4.753906.089844 0 .179687-.003906.269531-.007813 2.769532-.148437 4.894532-2.511719 4.746094-5.277343-.308594-5.796876-.546875-11.636719-.734375-17.425782 6.394531 1.601563 12.621094 4.253906 18.273437 7.972656 6.425782 4.230469 12.550782 10.078126 18.207032 17.390626 7.375 9.535156 12.328125 19.378906 14.71875 29.257812 4.050781 16.738281.652344 34.757812-9.089844 48.199219-9.871094 13.617187-26.03125 22.011719-42.304688 22.011719zm210.703126-126.65625c7.484374 0 14.78125 1.4375 21.261718 4.285156-2.871094 5.371094-5.660156 10.828125-8.316406 16.277344-1.210938 2.492187-.175781 5.496093 2.316406 6.710937.707032.34375 1.457032.507813 2.195313.507813 1.859375 0 3.648437-1.039063 4.515625-2.824219 2.542968-5.226563 5.21875-10.457031 7.964844-15.609375.546874.414062 1.078124.839844 1.601562 1.277344 5.070312 4.273437 9.398438 9.34375 12.851562 15.070312.234376.382812.453126.773438.675782 1.164062-.035156.023438-.078125.039063-.113282.066407-4.230468 3.210937-8.78125 6.039062-13.53125 8.414062-2.480468 1.238281-3.488281 4.25-2.25 6.730469.875 1.761719 2.652344 2.777344 4.492188 2.777344.753906 0 1.519531-.167969 2.238281-.527344 4.726563-2.359375 9.257813-5.140625 13.535157-8.25 2.941406 7.726562 4.480468 16.109375 4.496093 24.742188.035157 18.320312-7.300781 35.8125-19.621093 46.785156-5.660157 5.039062-12.898438 9.308594-22.136719 13.050781-9.695313 3.933594-18.207031 5.898437-26.019531 6.003906-16.46875.246094-32.941407-8.210937-42.945313-22.011719-9.742187-13.441406-13.140625-31.457031-9.089844-48.195312 2.394531-9.882812 7.34375-19.726562 14.71875-29.257812 5.65625-7.3125 11.78125-13.160157 18.207031-17.390626 5.65625-3.71875 11.878907-6.371093 18.273438-7.972656-.1875 5.8125-.421875 11.660156-.730469 17.425782-.148437 2.765624 1.976563 5.128906 4.742188 5.277343.09375.003907.183593.007813.273437.007813 2.648438 0 4.863282-2.074219 5.007813-4.753906.347656-6.484376.617187-13.070313.8125-19.597657 1.527343-.117187 3.054687-.183593 4.574219-.183593zm-38.46875 1.410156c-7.355469 4.839844-14.296876 11.445312-20.632813 19.636718-8.242187 10.65625-13.808594 21.773438-16.535156 33.035157-4.660157 19.253906-.832031 39.992187 10.207031 55.699219-11.578125 4.726562-22.804688 7.398437-33.425781 7.9375-11.613281.59375-23.539063-1.296876-35.066407-3.121094-8.480468-1.34375-17.226562-2.730469-24.691406-6.496094 10.15625-15.488281 13.558594-35.445312 9.0625-54.019531-2.726562-11.261719-8.289062-22.375-16.535156-33.035157-6.335938-8.191406-13.277344-14.796874-20.632812-19.636718-8.984376-5.910156-19.558594-9.699219-30.421876-10.996094 1.058594-19.988281 7.320313-41.136719 18.183594-61.28125 9.464844-17.542969 22.507813-34.875 39.867188-52.972656 11.929687 4.050781 25.183594 6.09375 39.601562 6.09375 5.1875 0 10.527344-.265625 16.007813-.792969 10.753906-1.035156 20.691406-2.992187 29.757812-5.824219.101563.121094.1875.253906.304688.367188 31.117187 30.753906 50.449219 73.265625 53.265625 116.917968-6.511719 1.949219-12.722656 4.808594-18.316406 8.488282zm37.410156-92.585938c5.558594 7.589844 9.140625 15.1875 10.648437 22.585938 1.710938 8.398437.710938 16.632812-2.816406 23.191406-3.957031 7.347656-11.417969 12.820312-19.835937 14.695312-6.957032-36.390624-24.597657-70.796874-50.332032-97.433593 3.40625-1.4375 6.671875-3.015625 9.773438-4.746094 19.339844 11.132813 39.265625 23.550781 52.5625 41.707031zm-16.8125-110.859375c-5.015625.734375-10.015625 1.558594-14.984375 2.484375-2.726563.507813-4.523438 3.128906-4.015625 5.855469.449218 2.414063 2.558594 4.101563 4.925781 4.101563.308594 0 .617187-.027344.929687-.085938 3.851563-.71875 7.726563-1.359375 11.609376-1.957031-1.085938 4.550781-2.722657 9.105469-4.890626 13.632812-6.574218-.859375-13.183593-1.476562-19.820312-1.835937-2.808594-.152344-5.132812 1.976562-5.285156 4.742187-.148438 2.769531 1.976562 5.132813 4.742187 5.285157 5.027344.269531 10.039063.699218 15.03125 1.269531-6.777343 10.328125-15.820312 19.0625-26.417969 25.464843-12.917968 7.800782-29.203124 12.695313-48.394531 14.546876-20.886719 2.015624-39.425781-.050782-55.09375-6.140626-14.074219-5.46875-25.929687-14.480468-33.855469-25.464843 1.347657.019531 2.695313.050781 4.046876.097656 2.773437.089844 5.09375-2.074219 5.1875-4.84375.09375-2.773437-2.078126-5.09375-4.847657-5.1875-3.425781-.117187-6.851562-.148437-10.273437-.109375-1.847656-4.042969-3.183594-8.1875-4.109375-12.34375 2.191406.535156 4.378906 1.101562 6.554687 1.695312.441406.117188.882813.175782 1.320313.175782 2.210937 0 4.234375-1.46875 4.839843-3.703125.726563-2.675781-.851562-5.433594-3.527343-6.160157-3.554688-.96875-7.136719-1.84375-10.730469-2.671874-.789062-10.929688.71875-21.363282 2.625-29.546876 2.101562-9.03125 4.757812-15.773437 8.359375-21.214843 4.335937-6.550781 10.902344-12.453125 20.078125-18.042969 9.460938-5.765625 19.789062-10.125 30.695312-12.957031 9.269532-2.402344 18.59375-3.261719 29.738282-3.804688l2.4375-.125c6.125-.320312 11.90625-.625 17.824218.347657 20.242188 3.328124 37.867188 11.167968 50.96875 22.679687 16.1875 14.214844 25.328126 34.59375 24.332032 53.816406zm0 0"/><path d="m165.691406 140.019531c-2.605468-2.261719-5.996094-3.136719-9.296875-2.398437-3.515625.785156-6.507812 3.269531-8.003906 6.648437v.003907c-1.132813 2.558593-1.339844 4.957031-.617187 7.128906.738281 2.210937 2.398437 4.035156 4.796874 5.277344 1.859376.960937 3.855469 1.433593 5.804688 1.433593 2.480469 0 4.882812-.765625 6.8125-2.273437 2.371094-1.847656 3.859375-4.734375 3.980469-7.722656.125-3.066407-1.175781-6.09375-3.476563-8.097657zm0 0"/><path d="m235.984375 144.269531c-1.496094-3.378906-4.488281-5.867187-8-6.648437-3.304687-.738282-6.695313.136718-9.300781 2.402344-2.304688 2-3.601563 5.027343-3.476563 8.097656.125 2.984375 1.613281 5.871094 3.980469 7.71875 1.929688 1.507812 4.332031 2.273437 6.8125 2.273437 1.949219 0 3.949219-.472656 5.804688-1.433593 2.398437-1.242188 4.058593-3.066407 4.796874-5.273438.726563-2.171875.519532-4.570312-.617187-7.136719zm0 0"/><path d="m112.472656 408.488281c-10.226562-4.144531-20.921875-2.613281-30.140625-.859375-9.511719 1.8125-19.890625 8.128906-27.089843 16.488282-8.300782 9.632812-11.839844 22.171874-9.476563 33.546874 2.179687 10.472657 9.300781 20.125 20.054687 27.175782 7.257813 4.761718 15.195313 7.730468 22.960938 8.59375 1.601562.179687 3.203125.265625 4.792969.265625 7.140625 0 14.058593-1.773438 19.875-5.144531 6.757812-3.917969 12.578125-10.296876 16.832031-18.449219 3.394531-6.5 5.441406-13.273438 6.085938-20.121094.707031-7.570313-.394532-14.957031-3.195313-21.355469-3.96875-9.078125-11.511719-16.417968-20.699219-20.140625zm13.898438 40.558594c-.519532 5.546875-2.199219 11.070313-4.988282 16.410156-3.375 6.464844-7.859374 11.449219-12.96875 14.414063-5.265624 3.054687-11.847656 4.328125-18.527343 3.585937-6.199219-.6875-12.617188-3.113281-18.5625-7.011719-8.386719-5.5-14.121094-13.089843-15.726563-20.824218-1.710937-8.21875 1.066406-17.777344 7.25-24.953125 5.703125-6.617188 14.089844-11.789063 21.363282-13.175781 4.324218-.824219 9-1.597657 13.621093-1.597657 3.734375 0 7.433594.503907 10.875 1.898438 6.773438 2.746093 12.339844 8.160156 15.269531 14.859375 2.117188 4.84375 2.945313 10.511718 2.394532 16.394531zm0 0"/><path d="m272.324219 408.488281c-9.183594 3.71875-16.730469 11.0625-20.699219 20.140625-2.796875 6.398438-3.902344 13.78125-3.191406 21.351563.640625 6.851562 2.6875 13.621093 6.085937 20.125 4.253907 8.148437 10.074219 14.53125 16.832031 18.449219 5.8125 3.371093 12.730469 5.144531 19.871094 5.144531 1.589844 0 3.195313-.089844 4.796875-.265625 7.761719-.863282 15.703125-3.835938 22.960938-8.59375 10.753906-7.050782 17.875-16.703125 20.050781-27.175782 2.367188-11.375-1.175781-23.917968-9.472656-33.546874-7.199219-8.359376-17.582032-14.675782-27.09375-16.488282-9.21875-1.757812-19.914063-3.28125-30.140625.859375zm49.628906 22.179688c6.179687 7.175781 8.957031 16.734375 7.25 24.953125-1.609375 7.730468-7.339844 15.324218-15.726563 20.824218-5.945312 3.898438-12.363281 6.320313-18.566406 7.011719-6.675781.742188-13.257812-.53125-18.523437-3.585937-5.109375-2.964844-9.59375-7.949219-12.972657-14.414063-2.789062-5.34375-4.464843-10.863281-4.984374-16.410156-.550782-5.882813.277343-11.554687 2.394531-16.398437 2.929687-6.695313 8.496093-12.109376 15.269531-14.855469 3.441406-1.394531 7.136719-1.898438 10.871094-1.898438 4.621094 0 9.300781.773438 13.621094 1.597657 7.277343 1.382812 15.664062 6.558593 21.367187 13.175781zm0 0"/><path d="m161.015625 288.507812c-8.082031 5.652344-15.089844 12.964844-20.261719 21.144532-9.316406 14.738281-13.214844 33.085937-10.691406 50.339844 1.777344 12.171874 6.507812 22.625 13.683594 30.222656 5.835937 6.183594 19.195312 16.421875 43.585937 16.421875.453125 0 .910157-.003907 1.371094-.007813 12.699219-.199218 23.785156-3.003906 32.941406-8.34375 10.277344-5.992187 18.984375-15.9375 24.519531-28.011718 8.78125-19.140626 8.671876-41.257813-.28125-59.164063-7.578124-15.152344-21.714843-26.847656-37.8125-31.285156-16.25-4.480469-32.523437-1.476563-47.054687 8.683593zm75.886719 27.09375c7.496094 14.984376 7.546875 34.328126.136718 50.488282-4.679687 10.210937-11.941406 18.5625-20.449218 23.519531-7.652344 4.460937-17.089844 6.808594-28.042969 6.980469-15.679687.238281-29.3125-4.59375-37.5-13.269532-7.265625-7.695312-10.019531-17.722656-11.054687-24.78125-2.175782-14.917968 1.191406-30.78125 9.25-43.523437 4.464843-7.066406 10.527343-13.386719 17.527343-18.28125 12.171875-8.507813 25.167969-10.941406 38.632813-7.234375 13.398437 3.695312 25.175781 13.453125 31.5 26.101562zm0 0"/></svg>