<svg id="Master_Line" enable-background="new 0 0 512 512" height="512" viewBox="0 0 512 512" width="512" xmlns="http://www.w3.org/2000/svg"><path d="m257.93 214.42c-19.96 18.14-50.84 27.78-70.7 27.78-23.41 0-46.08-8.27-63.99-23.35l-9.39-7.91c-9.36-7.88-21.21-12.21-33.46-12.21-14.03 0-26.6 8.65-31.62 21.74-9.98 26.04-15.1 53.7-15.1 81.59 0 98.86 80.14 179.01 179.01 179.01h59.35c98.86 0 179.01-80.14 179.01-179.01 0-39.57-18.58-76.75-49.99-100.51" fill="#efb338"/><path d="m149.99 459.94c0 5.99 3.86 11.34 9.58 13.12 16.78 5.21 34.62 8.02 53.12 8.02h59.35c98.86 0 179.01-80.14 179.01-179.01 0-39.57-18.58-76.75-49.99-100.51l-16.87 1.52-59.99 32.48c0 17.75 12.37 33.09 29.71 36.87 25.18 5.48 42.87 28.13 42.09 53.88-1.59 52.19-36.4 97.5-86.42 112.48-38.34 11.48-78.61 15.04-118.37 10.45l-25.87-2.98c-8.18-.94-15.35 5.45-15.35 13.68z" fill="#d39629"/><path d="m426.05 130.73c1.35 22.59-5.4 45.02-19.38 62.82-19.6 24.96-49.81 42.01-82.48 42.01-57.37 0-103.79-46.91-102.99-104.47.76-54.76 44.93-99.76 99.67-101.48 51.05-1.6 94.1 33.95 104.12 81.67l17.37 1.86c9.95 1.07 20.01-.56 29.1-4.73 4.36-2 9.33 1.19 9.33 5.99 0 31.49-29.75 67.77-69.86 73.73" fill="#efb338"/><path d="m248.26 163.44c-11.22 0-18.3 12.23-12.55 21.86 17.98 30.1 50.87 50.26 88.48 50.26 17.23 0 33.77-4.75 48.43-12.89-6.82 1.54-13.85 2.35-21 2.35-39.15 0-73.19-21.84-90.62-54-2.52-4.67-7.42-7.58-12.74-7.58z" fill="#d39629"/><path d="m259.79 317.64c-14.05 28.28-48.72 44.77-95 54.64 23.09 18.95 52.45 29.95 83.63 29.95 35.8 0 64.83-29.02 64.83-64.83 0-4.13-.39-8.17-1.12-12.08-4.94-26.16-40.5-31.52-52.34-7.68z" fill="#d39629"/><path d="m425 111.28 17.37 1.86c9.95 1.07 20.01-.56 29.1-4.73 4.36-2 9.33 1.19 9.33 5.99 0 31.49-29.75 67.77-69.86 73.73 13.07-18.48 20.03-42.16 14.06-76.85z" fill="#ee7067"/><path d="m450.51 147.12c-8.12 3.93-16.36 5.87-24.72 5-2.37 14.2-7.69 25.89-14.85 36.01 20.02-2.98 37.45-13.51 49.9-27.23 6.48-7.15-1.64-17.99-10.33-13.78z" fill="#cd5252"/><g><path d="m320.58 310.5c-11.43-30.03-42.24-49.92-74.25-47.77-28.05 1.12-60.98 2.63-88.89 4.13-22.77.87-39.41 21.78-34.97 44.07.78 7.04 1.53 13.98 4.04 20.74 5.97 14.35 14.38 27.55 25.08 39 23.63 25.53 57.44 41.07 92.17 42.85 55.61 4.19 96.85-50.9 76.82-103.02zm-90.84 79.3c-2.94-.35-5.86-.82-8.76-1.38l-14.52-14.52c5.52-.52 10.94-1.46 16.21-2.8l19.66 19.66c-4.22-.11-8.43-.47-12.59-.96zm-29.76-15.48c.11.22.25.43.44.61l11.31 11.31c-10.68-2.95-20.95-7.33-30.51-12.93 5 .72 10.07 1.08 15.2 1.08 1.19 0 2.38-.03 3.56-.07zm84.02-46.18 16.28 16.28c-.74 5.1-2.2 10.05-4.31 14.69l-20.3-20.3c2.99-3.36 5.77-6.93 8.33-10.67zm-11.74 14.33 21.32 21.32c-2.26 3.93-5 7.57-8.17 10.83l-23.14-23.14c3.51-2.78 6.84-5.79 9.99-9.01zm-14.02 12.06 23.52 23.52c-3.46 2.96-7.3 5.5-11.5 7.5l-23.73-23.73c4.06-2.18 7.97-4.61 11.71-7.29zm-16.42 9.65 23.46 23.46c-2.81 1-5.75 1.78-8.81 2.3-2.37.38-4.76.61-7.16.74l-21.14-21.14c4.69-1.48 9.25-3.27 13.65-5.36zm59-26.29-14.04-14.04c2.65-4.32 4.99-8.86 7.02-13.6 1.58 2.78 2.91 5.71 3.96 8.75 2.24 6.24 3.19 12.63 3.06 18.89zm-159.52-.69c-2.93-4.07-5.88-8.3-8.22-12.8-2.22-4.51-4.07-9.7-5.85-14.48-1.22-17.37 12.57-32.92 30.27-31.64 27.93 1.45 60.78 3.05 88.84 4.12 2.3.08 4.89.23 7.14.56 14.79 1.85 28.32 10.24 37.02 22.17-2.41 6.19-5.4 12.04-8.89 17.53-.09.12-.17.25-.24.38-18.18 28.29-49.84 46.34-84.95 46.34-9.06 0-17.94-1.18-26.54-3.52-10.93-7.99-20.64-17.67-28.58-28.66z"/><ellipse cx="341.56" cy="126.97" rx="22.17" ry="22.17" transform="matrix(.383 -.924 .924 .383 93.551 393.942)"/><path d="m487.93 110.15c-2.1-7.82-11.21-12.41-18.74-9.61-8.61 3.66-18.18 4.92-27.36 3.33-1.83-.26-5.42-.75-8.85-1.2-8.05-32.65-31.93-61.32-62.9-75.13-80.9-36.18-170.4 29.75-160.29 117.65 3.56 30.25 18.34 55.46 39.03 72.99-6.31 4.23-13.12 7.73-20.17 10.57-14.71 5.7-30.54 9.67-46.37 8.15-20.7-1.85-40.56-10.7-55.69-24.84-3.85-3.37-9.13-8.44-13.3-11.26-24.86-17.14-59.64-14.55-73.01 15.32-1.65 4.03-3.23 8.15-4.65 12.27-13.11 38.26-17.25 80.26-7.86 119.91 19.66 85.18 99.86 147.27 187.23 145.15 15.12-.09 42.48-.23 57.91-.35 23.48-.32 46.96-4.89 68.68-13.77 54.2-21.68 96.74-70.02 110.84-126.65 11.51-45.81 6.46-93.49-24.79-130.38-6.15-7.2-13.04-13.73-20.55-19.37 3.35-4.13 6.35-8.48 9-13.01 35.54-5.35 67.89-35.08 72.17-71.71.22-2.67.5-5.44-.33-8.06zm-51.6 145.06c7.57 19.81 9.39 41.2 6.61 62.09-5.84 52.2-36.84 100.4-81.83 127.3-26.44 16.11-57.39 24.63-88.3 24.43-10.96-.09-38.88-.18-49.54-.28-1.88-.02-8.49-.03-10.33-.06-75.18.71-144.44-53.15-162.73-126.01-9.29-35.37-6.35-73.38 3.99-108.27.92-3.15 2.02-6.29 3.08-9.4.52-1.48 1.05-3.03 1.82-4.4 4.8-9.38 15.41-14.43 25.86-13.15 9.42.65 18.47 4.59 25.66 10.7 6.56 5.22 13.62 11.02 20.95 15.09 17.83 10.29 38.42 15.17 58.91 13.73 22.75-2.22 44.96-10.96 62.74-25.29 19.87 15.2 44.47 23.67 69.61 23.28 3.59 14.66 15.33 26.57 30.53 29.88 23.99 5.22 40.87 26.82 40.12 51.36-1.56 51.2-35.57 95.47-84.63 110.16-38.23 11.45-77.72 14.94-117.37 10.36-1.38-.16-2.61.83-2.77 2.2s.83 2.61 2.2 2.77c11.46 1.32 22.9 1.98 34.31 1.98 28.73 0 57.23-4.19 85.07-12.52 51.13-15.31 86.58-61.45 88.2-114.8.82-26.95-17.71-50.67-44.06-56.4-12.98-2.82-23.08-12.81-26.49-25.21 19.48-1.24 39.1-7.84 56.93-20.82 6.92-5.07 13.2-10.74 18.72-16.93 14.62 13.41 25.94 30.03 32.74 48.21zm10.24-87.67c-7.81 6.74-16.91 12.11-26.82 15.58 7.7-15.85 11.06-33.67 8.73-52.54-.41-2.97-4.77-2.73-4.85.27-.16 12.75-2.72 25.32-7.71 36.7-14.64 33.19-50.63 57.33-86.1 58.55-48.35 1.81-91.49-35.25-95.93-83.55-5.95-53.96 38.98-102.54 93.18-100.86 41.96.39 79.35 31.29 88.66 72.11.92 3.77 4.16 6.69 8.24 7.03 0 0 10.6.86 10.6.86 3.26.25 8.02.66 11.23.73 9.43.11 18.77-1.87 27.28-5.76-.05 18.28-11.73 38.26-26.51 50.88zm28.26-51.68c.06-.02.01 0 0 0z"/></g><g fill="#fff"><path d="m256.28 103.02c8.65-27.03 37.13-46.18 65.39-44.51.54.03.95.49.92 1.03-.03.48-.4.85-.85.91-6.75.87-13.31 2.37-19.56 4.68-12.52 4.58-23.69 12.28-32.58 22.21-4.46 4.96-8.34 10.45-11.75 16.36-.49.85-1.89.28-1.57-.68z"/><path d="m250.12 131.51c-1.32-2.34-1.5-4.86-1.21-7.41-.06-1.44 2.58-10.02 4.55-6.59.88 3.56.66 7.07-.22 10.57-.33.97-1.47 5.37-3.12 3.43z"/><path d="m218.04 291.17c-13.46.64-26.89.15-40.31-.6-6.65-.45-12.91-.99-19.35.53-6.31 1.24-12.37 4.38-17.87 7.69-.45.26-1.03.1-1.29-.35-.23-.4-.13-.91.22-1.2 1.3-1.08 2.57-2.16 3.93-3.21 4.14-3.21 8.9-5.61 13.96-7.06 6.58-2.11 13.88-1.83 20.68-1.36 6.7.36 13.4.84 20.09 1.45 6.69.62 13.37 1.38 20.03 2.48.92.15.91 1.57-.09 1.63z"/><path d="m252.85 293.13c-4.64 1.7-9.52 1.39-14.26.52-1.56-.33-3.12-.75-4.66-1.47-.51-.23-.73-.84-.5-1.34.12-.26.35-.45.6-.54 1.61-.53 3.21-.78 4.8-.93 3.18-.26 6.34-.16 9.46.51 1.56.34 3.12.8 4.65 1.61.68.33.61 1.39-.09 1.64z"/><path d="m91.26 218.85c21.55 17.96 43.54 31.33 71.42 36.7 1.08.22.94 1.9-.22 1.87-21.03-.58-41.47-9.41-57.63-22.67-5.4-4.43-10.37-9.35-14.74-14.74-.59-.74.4-1.79 1.17-1.16z"/><path d="m414.14 239.97c24.6 28.98 23.36 87.96 2.8 118.91-.29.43-.87.55-1.31.26-.4-.27-.53-.79-.32-1.21 4.56-9.1 7.59-18.84 9.5-28.77 5.12-28.04 3.59-63.55-11.97-88.18-.54-.79.62-1.8 1.3-1.01z"/><path d="m438.43 128.16c6.42-1.44 12.79-1.3 19.24-2.07 2.11-.2 4.2-.51 6.42-.76.55-.06 1.05.33 1.12.89.04.35-.11.68-.36.89-1.84 1.51-4 2.52-6.21 3.29-4.41 1.44-9.14 1.82-13.71 1.22-2.27-.31-4.5-.83-6.65-1.78-.78-.31-.66-1.52.15-1.68z"/></g></svg>