<svg height="512pt" viewBox="-26 0 512 512.0002" width="512pt" xmlns="http://www.w3.org/2000/svg"><path d="m370.347656 504.996094c-1.550781 0-3.105468-.035156-4.625-.105469-12.402344-.582031-29.648437-4.664063-41.371094-20.816406-6.832031-9.433594-11.082031-21.351563-12.636718-35.421875-1.539063-13.816406-.144532-27.320313 4.027344-39.050782 5.359374-15.070312 15.738281-27.515624 31.726562-38.039062 7.722656-5.078125 15.730469-8.996094 23.804688-11.648438l5.8125-1.910156-.582032 6.089844c-.632812 6.582031-.582031 13.277344.152344 19.910156.058594.515625.496094.910156 1.015625.910156.042969 0 .089844-.003906.140625-.007812.53125-.0625.9375-.566406.875-1.128906-.816406-7.355469-.773438-14.800782.125-22.140625.007812-.078125.011719-.109375.003906-.179688l-.332031-3.648437 3.605469-.652344c4.082031-.738281 8.074218-1.113281 11.871094-1.113281 6.285156 0 12.175781.980469 17.515624 2.921875 3.058594 1.113281 6.101563 2.605468 9.042969 4.445312l3.421875 2.136719-2.164062 3.402344c-4.667969 7.34375-10.199219 14.070312-16.429688 19.992187-.410156.390625-.425781 1.035156-.035156 1.445313.257812.277343.574219.316406.738281.316406.183594 0 .453125-.050781.699219-.28125 6.136719-5.832031 11.609375-12.4375 16.261719-19.632813l2.589843-4 3.492188 3.242188c2.78125 2.582031 5.445312 5.539062 7.914062 8.792969 5.3125 7.03125 9.695313 14.6875 12.675782 22.144531l1.566406 3.914062-3.992188 1.355469c-7.054687 2.402344-13.695312 5.726563-19.742187 9.882813-.292969.199218-.394531.464844-.429687.652344-.035157.191406-.035157.476562.164062.769531.273438.394531.6875.441406.851562.441406.136719 0 .351563-.035156.585938-.191406 5.851562-4.019531 12.265625-7.238281 19.042969-9.554688l4.265625-1.457031.9375 4.410156c.046875.183594.074218.296875.097656.40625 7.855469 35.085938-9.832031 71.675782-41.15625 85.082032-12.53125 5.363281-27.277344 8.316406-41.527344 8.316406zm-2.8125-103.484375c-6.398437 0-12.667968 1.796875-18.640625 5.34375-10.925781 6.484375-17.878906 21.527343-16.910156 36.582031.894531 13.980469 8.035156 27.417969 19.089844 35.949219 7.261719 5.601562 15.800781 8.6875 24.046875 8.6875 1.5625 0 3.128906-.117188 4.65625-.347657 10.339844-1.53125 19.808594-8.511718 24.714844-18.21875 3.773437-7.476562 5.160156-16.863281 3.902343-26.433593-.910156-6.960938-3.3125-13.859375-6.949219-19.949219-8.203124-13.734375-20.5625-21.613281-33.910156-21.613281zm0 0" fill="#c67045"/><path d="m375.089844 486.03125c-7.777344 0-15.859375-2.933594-22.761719-8.261719-10.441406-8.046875-17.457031-21.257812-18.308594-34.46875-.925781-14.328125 5.621094-28.59375 15.914063-34.6875 5.492187-3.265625 11.332031-4.917969 17.355468-4.917969 12.816407 0 24.625 7.457032 32.40625 20.464844 3.492188 5.867188 5.800782 12.5 6.679688 19.183594 1.203125 9.152344-.113281 18.113281-3.703125 25.238281-4.609375 9.128907-13.492187 15.691407-23.183594 17.128907-1.429687.210937-2.910156.320312-4.398437.320312zm0 0" fill="#ffd2bb"/><g fill="#c67045"><path d="m354.085938 334.832031c-2.492188-7.082031-5.636719-13.738281-8.414063-19.609375-9.949219-21.097656-19.410156-39.722656-34.46875-53.972656l-3.855469-3.648438 4.566406-2.703124c3.359376-1.984376 6.234376-4.074219 8.78125-6.378907 3.046876-2.75 5.636719-5.898437 7.703126-9.355469l1.789062-3.003906 3.214844 1.375c18.070312 7.726563 31.398437 17.214844 40.742187 29.015625 12.015625 15.179688 16.402344 34.503907 11.445313 50.441407-1.882813 6.019531-4.898438 10.808593-8.726563 13.859374-4.984375 3.976563-11.503906 5.386719-18.304687 6.589844l-3.34375.59375zm0 0"/><path d="m334.910156 90.789062c-1.476562-3.144531-3.132812-6.257812-4.917968-9.261718l-2.550782-4.296875 4.746094-1.550781c7.289062-2.378907 12.851562-5.613282 17.003906-9.886719 6.070313-6.234375 8.609375-14.625 6.628906-21.898438-1.488281-5.476562-5.503906-10.273437-11.015624-13.160156-3.9375-2.058594-8.660157-3.144531-13.648438-3.144531-1.070312 0-2.164062.050781-3.257812.148437-6.554688.59375-12.308594 2.847657-16.644532 6.519531-3.242187 2.753907-5.664062 6.425782-6.804687 10.335938l-1.601563 5.476562-4.601562-3.367187c-2.25-1.648437-4.597656-3.246094-6.980469-4.746094l-2.832031-1.785156 1.257812-3.101563c.089844-.21875.105469-.300781.109375-.324218 1.515625-9.582032 8.417969-18.832032 18.011719-24.109375 6.984375-3.84375 15.628906-5.878907 24.992188-5.878907 1.824218 0 3.699218.078126 5.574218.226563 9.234375.75 17.320313 3.140625 24.042969 7.101563 7.648437 4.519531 13.378906 11.101562 16.136719 18.535156 1.492187 4.035156 2.273437 8.625 2.457031 14.457031.214844 6.617187-.441406 12.203125-2.007813 17.070313-1.625 5.046874-4.460937 9.9375-8.199218 14.144531-8.042969 9.0625-20.085938 14.59375-32.214844 14.789062l-2.582031.042969zm0 0"/><path d="m228.640625 505.867188c-26.925781 0-52.875-4.714844-77.121094-14.019532-2.644531-1.019531-6.109375-2.410156-9.527343-4.132812l-3.933594-1.976563 2.347656-3.726562c5.757812-9.136719 9.402344-20.28125 10.832031-33.128907 1.574219-14.125.144531-27.945312-4.132812-39.96875-5.445313-15.292968-16.390625-28.429687-32.53125-39.050781-1.191407-.78125-2.480469-1.589843-3.929688-2.464843l-2.449219-1.480469.605469-2.796875c7.863281-36.054688 23.84375-70.582032 46.210938-99.847656l1.941406-2.535157 2.902344 1.328125c8.175781 3.746094 17.433593 6.355469 29.132812 8.214844l3.609375.574219-8.535156 126.4375c-.078125 1.199219-.019531 2.535156.988281 3.382812.726563.613281 1.640625.699219 2.4375.699219l29.515625-.203125c18.210938-.117187 37.042969-.242187 55.601563-2.078125 1.148437-.117188 3.292969-.332031 4.476562-1.855469.957031-1.234375.945313-2.941406.9375-3.855469-.039062-18.519531-2.582031-37.050781-5.042969-54.976562l-9.347656-68.089844 3.75-.695312c8.972656-1.664063 17.710938-3.898438 25.972656-6.644532 3.570313-1.1875 6.5625-2.300781 9.410157-3.503906l2.296875-.972656 1.882812 1.632812c16.4375 14.246094 26.433594 33.769532 36.886719 55.957032 6.914063 14.660156 12.25 26.957031 12.808594 40.589844.015625.285156.140625.527343.378906.730468l4.539063 3.839844-5.265626 2.757812c-3.441406 1.800782-6.691406 3.71875-9.9375 5.855469-16.144531 10.621094-27.089843 23.757813-32.53125 39.050781-4.277343 12.023438-5.707031 25.84375-4.132812 39.96875 1.378906 12.457032 4.851562 23.328126 10.320312 32.3125l2.351563 3.863282-4.125 1.863281c-27.46875 12.394531-58.449219 18.945313-89.59375 18.945313zm0 0"/></g><path d="m324.46875 73.046875c-5.074219-7.078125-10.933594-13.566406-17.414062-19.285156l-1.441407-1.273438.09375-1.921875c.003907-.113281.011719-.226562.023438-.339844 0 0 .003906.070313.003906.144532-.195313-5.257813 2.429687-10.816406 6.851563-14.558594 5.039062-4.28125 11.210937-5.648438 15.5-6.042969 1.039062-.09375 2.082031-.140625 3.097656-.140625 4.640625 0 9.023437 1.011719 12.671875 2.921875 4.945312 2.589844 8.679687 7.035157 9.996093 11.886719 1.765626 6.480469-.640624 14.308594-6.125 19.9375-4.398437 4.523438-10.59375 7.859375-18.929687 10.191406l-2.695313.753906zm0 0" fill="#ffd2bb"/><path d="m239.746094 228.992188c-16.003906-.121094-33.234375-3.722657-52.660156-11.003907-16.4375-6.164062-27.710938-12.550781-36.546876-20.707031-19.332031-17.863281-28.28125-47.570312-23.355468-77.527344 4.347656-26.394531 18.757812-51.191406 39.539062-68.027344 8.847656-7.167968 18.851563-12.9375 29.734375-17.144531 13.84375-5.328125 27.84375-8.148437 40.492188-8.148437 5.46875 0 10.605469.535156 15.265625 1.589844 19.675781 4.4375 38.019531 13.734374 53.050781 26.878906 27.085937 23.671875 41.375 58.941406 37.296875 92.050781-1.4375 11.628906-5.097656 22.828125-10.582031 32.382813-6.15625 10.753906-14.964844 20.335937-26.179688 28.484374-18.796875 13.65625-41.917969 21.179688-65.109375 21.179688zm-3.734375-126.167969c-9.632813 0-18.933594 2.328125-26.894531 6.738281-6.542969 3.628906-12.394532 8.367188-17.386719 14.074219-7.023438 8.046875-11.828125 17.410156-13.898438 27.074219-2.222656 10.382812-1.199219 21.121093 2.878907 30.242187 6.570312 14.695313 21.566406 26.023437 40.117187 30.292969 5.433594 1.253906 10.949219 1.886718 16.390625 1.886718 10.570312 0 20.851562-2.425781 29.734375-7.023437 14.59375-7.554687 25.234375-21.082031 28.464844-36.171875 3.621093-16.933594-2.480469-36.226562-15.542969-49.148438-11.539062-11.417968-27.527344-17.964843-43.863281-17.964843zm40.753906-23.023438c-.953125 0-1.746094.328125-2.441406.617188-3.574219 1.472656-5.03125 4.1875-3.90625 7.261719.847656 2.3125 3.328125 3.992187 5.902343 3.992187.613282 0 1.207032-.089844 1.761719-.269531 2.992188-.980469 4.84375-4.492188 3.960938-7.515625-.457031-1.578125-1.742188-2.976563-3.355469-3.664063-.671875-.28125-1.300781-.421875-1.921875-.421875zm-83.035156 0c-.957031 0-1.75.328125-2.449219.617188-3.5625 1.472656-5.019531 4.1875-3.894531 7.261719.84375 2.316406 3.324219 3.992187 5.902343 3.992187.605469 0 1.195313-.089844 1.75-.269531 2.992188-.980469 4.847657-4.496094 3.96875-7.523438-.464843-1.589844-1.722656-2.957031-3.359374-3.652344-.671876-.289062-1.296876-.425781-1.917969-.425781zm0 0" fill="#c67045"/><path d="m226.925781 271.230469c-10.664062 0-21.550781-.738281-32.359375-2.191407-11.171875-1.507812-25.632812-4.132812-38.398437-11.082031-12.703125-6.917969-21.980469-17.566406-25.453125-29.222656-3.695313-12.414063-.136719-26.582031 8.65625-34.453125l2.957031-2.644531 2.671875 2.933593c1.414062 1.558594 2.773438 2.929688 4.152344 4.203126 9.019531 8.339843 20.496094 14.855468 37.210937 21.125 19.664063 7.367187 37.121094 11.007812 53.367188 11.136718h.859375c23.691406 0 47.273437-7.660156 66.410156-21.566406 3.613281-2.617188 7.058594-5.460938 10.242188-8.449219l3.46875-3.257812 2.613281 3.976562c3.28125 4.992188 7.125 11.664063 7.734375 19.015625.761718 9.109375-3.625 18.925782-11.734375 26.257813-8.035157 7.261719-18.441407 11.3125-26.609375 14.027343-20.351563 6.761719-42.484375 10.191407-65.789063 10.191407zm0 0" fill="#ed6d66"/><path d="m237.019531 211.050781c-5.285156 0-10.582031-.601562-15.734375-1.789062-17.921875-4.128907-32.394531-15.023438-38.714844-29.144531-3.902343-8.71875-4.875-19.011719-2.742187-28.980469 1.992187-9.328125 6.640625-18.371094 13.441406-26.15625.851563-.984375 1.8125-2.003907 3.011719-3.207031l5.542969-5.539063 1.238281 7.734375c.777344 4.878906 3.425781 9.710938 7.074219 12.933594 5.703125 5.023437 14.054687 7.679687 24.144531 7.679687h.121094c.175781 0 .347656 0 .527344-.007812h.101562c10.03125-.128907 18.199219-2.847657 23.625-7.867188 4.523438-4.195312 7.265625-10.210937 7.519531-16.492187l.304688-7.664063 6.109375 4.636719c2.125 1.613281 4.09375 3.3125 5.855468 5.050781 12.578126 12.4375 18.457032 30.992188 14.976563 47.269531-3.105469 14.511719-13.355469 27.515626-27.414063 34.789063-8.53125 4.417969-18.558593 6.753906-28.988281 6.753906zm-19.859375-35.144531c-.164062 0-.402344.039062-.632812.222656-.4375.34375-.511719.992188-.160156 1.429688 3.429687 4.324218 9.082031 7.136718 16.800781 8.367187 2.300781.371094 4.476562.558594 6.484375.558594 2.050781 0 3.914062-.1875 5.695312-.578125 4.425782-.949219 8.199219-3.164062 10.640625-6.238281.347657-.441407.273438-1.089844-.171875-1.445313-.222656-.175781-.460937-.214844-.621094-.214844-.1875 0-.535156.046876-.796874.378907-2.148438 2.707031-5.511719 4.667969-9.46875 5.527343-1.617188.347657-3.390626.527344-5.269532.527344-1.902344 0-3.914062-.171875-6.160156-.527344-7.203125-1.152343-12.425781-3.714843-15.535156-7.617187-.273438-.339844-.621094-.390625-.804688-.390625zm0 0" fill="#ffd2bb"/><path d="m194.621094 271.132812 4.171875.488282c9.402343 1.097656 18.863281 1.652344 28.117187 1.652344 10.332032 0 20.675782-.703126 30.746094-2.082032l3.964844-.546875 9.332031 68.035157c2.441406 17.730468 4.964844 36.066406 5.027344 54.390624l.011719 3.632813-3.617188.359375c-18.21875 1.8125-36.871094 1.949219-54.902344 2.078125l-31.503906.210937zm0 0" fill="#ed6d66"/><path d="m234.214844 142.539062c-6.660156 0-16.007813-1.242187-22.71875-7.167968-5.578125-4.914063-8.902344-14.269532-4.804688-21.417969l.515625-.898437.886719-.539063c.679688-.40625 1.347656-.804687 2.035156-1.179687 7.683594-4.257813 16.664063-6.511719 25.953125-6.511719 8.773438 0 17.691407 2.023437 25.789063 5.851562l3.191406 1.511719-1.105469 3.355469c-.054687.167969-.070312.3125-.046875.445312 1.09375 6.929688-1.515625 14.472657-6.652344 19.230469-6.375 5.902344-15.625 7.234375-22.261718 7.3125-.25.003906-.511719.007812-.78125.007812zm0 0" fill="#af7979"/><path d="m130.8125 90.539062c-16.855469-3.257812-31.242188-17.796874-34.210938-34.570312-3.054687-17.359375 6.34375-36.738281 21.867188-45.078125 5.835938-3.136719 12.667969-4.792969 19.753906-4.792969 11.339844 0 22.238282 4.171875 29.902344 11.445313 5.355469 5.085937 9.101562 11.4375 10.546875 17.894531.03125.128906.078125.238281.152344.335938l2.589843 3.523437-3.742187 2.265625c-2.042969 1.242188-3.882813 2.425781-5.613281 3.628906l-4.066406 2.820313-1.902344-4.570313c-4.355469-10.464844-15.765625-18.058594-27.136719-18.058594-.890625 0-1.789063.046876-2.664063.140626-4.558593.476562-8.523437 2.03125-11.46875 4.496093-2.890624 2.40625-5.085937 5.859375-6.539062 10.265625-2.644531 8.015625-1.914062 16.96875 1.957031 23.949219 3.378907 6.078125 9.074219 10.613281 15.617188 12.4375l4.902343 1.367187-2.484374 4.4375c-1.179688 2.105469-2.195313 4.035157-3.109376 5.898438l-1.347656 2.746094zm0 0" fill="#c67045"/><path d="m140.097656 75.386719c-7.269531-.679688-14.363281-5.453125-18.078125-12.15625-3.597656-6.464844-4.273437-14.808594-1.808593-22.304688 1.320312-4 3.367187-7.230469 5.917968-9.34375 3.316406-2.785156 7.472656-3.730469 10.371094-4.027343.800781-.085938 1.628906-.128907 2.457031-.128907 11.300781 0 22.429688 7.957031 25.882813 18.503907.003906.011718.027344.074218.121094.234374l1.734374 2.925782-2.609374 2.179687c-7.664063 6.414063-14.5 13.953125-20.320313 22.402344l-1.332031 1.933594zm0 0" fill="#ffd2bb"/><path d="m90.613281 504.996094c-14.28125 0-29.042969-2.953125-41.566406-8.316406-31.320313-13.40625-49.0117188-49.996094-41.148437-85.109376.015624-.082031.042968-.191406.070312-.304687l.9375-4.410156 4.289062 1.382812c6.773438 2.316407 13.1875 5.535157 19.058594 9.566407.167969.113281.363282.179687.566406.179687.164063 0 .578126-.046875.855469-.453125.195313-.28125.195313-.566406.160157-.757812-.035157-.1875-.136719-.453126-.425782-.652344-6.050781-4.15625-12.691406-7.480469-19.746094-9.878906l-3.992187-1.359376 1.566406-3.914062c2.980469-7.457031 7.363281-15.109375 12.671875-22.136719 2.472656-3.261719 5.136719-6.21875 7.917969-8.800781l3.492187-3.238281 2.585938 3.996093c4.65625 7.195313 10.128906 13.800782 16.269531 19.632813.242188.234375.511719.28125.695313.28125.164062 0 .480468-.039063.726562-.304687.402344-.417969.386719-1.066407-.023437-1.457032-6.230469-5.921875-11.757813-12.648437-16.429688-19.992187l-2.164062-3.402344 3.421875-2.136719c2.941406-1.839844 5.984375-3.332031 9.039062-4.445312 5.332032-1.9375 11.222656-2.917969 17.503906-2.917969 3.835938 0 7.835938.371094 11.882813 1.101563l3.597656.648437-.320312 3.644531c-.011719.082032-.003907.121094-.003907.121094.90625 7.414062.949219 14.863281.132813 22.210938-.0625.566406.34375 1.074218.902344 1.136718.019531 0 .066406.003906.113281.003906.519531 0 .957031-.394531 1.015625-.917968.730469-6.621094.78125-13.320313.152344-19.898438l-.585938-6.09375 5.816407 1.910156c8.074218 2.652344 16.082031 6.574219 23.800781 11.648438 15.992187 10.527344 26.371093 22.96875 31.730469 38.042969 4.171874 11.726562 5.5625 25.230469 4.023437 39.050781-1.554687 14.070312-5.804687 25.984375-12.632813 35.414062-11.726562 16.15625-28.96875 20.238282-41.375 20.820313-1.503906.070313-3.042968.105469-4.582031.105469zm2.769531-103.484375c-13.34375 0-25.703124 7.878906-33.90625 21.613281-3.636718 6.089844-6.039062 12.988281-6.949218 19.945312-1.257813 9.574219.128906 18.964844 3.902344 26.441407 4.90625 9.703125 14.371093 16.683593 24.707031 18.214843 1.53125.230469 3.101562.347657 4.664062.347657 8.246094 0 16.785157-3.085938 24.046875-8.6875 11.054688-8.53125 18.191406-21.96875 19.089844-35.949219.96875-15.054688-5.984375-30.097656-16.910156-36.585938-5.972656-3.542968-12.246094-5.339843-18.644532-5.339843zm0 0" fill="#c67045"/><path d="m108.132812 342.75c-9.691406-2.261719-18.378906-8.300781-23.832031-16.574219-5.671875-8.589843-7.742187-19.304687-5.679687-29.402343 1.417968-6.945313 4.847656-14.097657 10.484375-21.859376 10.582031-14.578124 24.847656-26.257812 41.257812-33.777343l3.003907-1.375 1.917968 2.6875c4.105469 5.746093 9.683594 10.953125 16.128906 15.050781l3.660157 2.324219-2.613281 3.460937c-17.441407 23.105469-30.769532 48.9375-39.609376 76.78125l-1.117187 3.523438zm0 0" fill="#c67045"/><path d="m85.835938 486.03125c-1.484376 0-2.964844-.105469-4.394532-.320312-9.695312-1.4375-18.582031-7.996094-23.191406-17.125-3.59375-7.128907-4.910156-16.089844-3.707031-25.242188.878906-6.683594 3.1875-13.3125 6.679687-19.175781 7.78125-13.015625 19.597656-20.472657 32.417969-20.472657 6.015625 0 11.855469 1.65625 17.351563 4.917969 10.289062 6.097657 16.832031 20.359375 15.910156 34.6875-.851563 13.214844-7.867188 26.421875-18.3125 34.472657-6.898438 5.324218-14.980469 8.257812-22.753906 8.257812zm0 0" fill="#ffd2bb"/><path d="m219.933594 215.140625c5.769531 1.332031 11.574218 1.988281 17.285156 1.988281 11.1875 0 22.019531-2.523437 31.566406-7.464844 15.648438-8.097656 27.066406-22.636718 30.542969-38.886718 3.902344-18.238282-2.628906-38.976563-16.636719-52.832032-20.175781-19.949218-51.933594-24.945312-75.511718-11.882812-6.960938 3.859375-13.171876 8.886719-18.460938 14.945312-7.476562 8.5625-12.59375 18.542969-14.800781 28.867188-2.394531 11.214844-1.28125 22.828125 3.140625 32.710938 7.085937 15.835937 23.113281 28.007812 42.875 32.554687zm16.144531-106.320313c8.183594 0 16.472656 1.871094 24.082031 5.472657-.238281.730469-.328125 1.515625-.199218 2.328125.894531 5.636718-1.230469 11.78125-5.417969 15.660156-5.429688 5.03125-13.648438 6.179688-19.589844 6.257812-6.234375.089844-14.875-.925781-20.816406-6.164062-4.382813-3.867188-6.925781-11.285156-3.972657-16.433594.621094-.375 1.246094-.742187 1.882813-1.09375 7.335937-4.066406 15.625-6.027344 24.03125-6.027344zm-52.339844 43.152344c1.847657-8.65625 6.1875-17.082031 12.542969-24.363281.910156-1.042969 1.863281-2.039063 2.832031-3.007813.953125 5.941407 4.128907 11.546876 8.382813 15.300782 6.445312 5.6875 15.695312 8.679687 26.789062 8.679687.265625 0 .53125 0 .796875-.003906 11.042969-.144531 20.132813-3.230469 26.285157-8.933594 5.359374-4.964843 8.511718-12.023437 8.808593-19.269531 1.902344 1.445312 3.734375 3.007812 5.457031 4.710938 11.632813 11.507812 17.082032 28.617187 13.878907 43.59375-2.855469 13.347656-12.328125 25.335937-25.339844 32.070312-12.132813 6.28125-27.4375 7.960938-41.988281 4.609375-16.710938-3.847656-30.152344-13.894531-35.960938-26.875-3.558594-7.949219-4.441406-17.363281-2.484375-26.511719zm0 0"/><path d="m232.539062 189.875c2.527344.402344 4.886719.605469 7.105469.605469 2.328125 0 4.5-.222657 6.550781-.664063 5.320313-1.148437 9.910157-3.871094 12.925782-7.667968 1.722656-2.171876 1.363281-5.328126-.808594-7.050782-2.171875-1.726562-5.328125-1.363281-7.054688.808594-1.570312 1.980469-4.125 3.4375-7.179687 4.09375-2.769531.597656-6.03125.585938-9.960937-.039062-6.175782-.984376-10.554688-3.054688-13.023438-6.160157-1.722656-2.167969-4.882812-2.53125-7.050781-.804687-2.171875 1.722656-2.53125 4.878906-.808594 7.050781 4.078125 5.132813 10.570313 8.4375 19.304687 9.828125zm0 0"/><path d="m193.289062 95.675781c1.003907 0 2.015626-.152343 2.996094-.472656 5.039063-1.652344 8.046875-7.351563 6.566406-12.445313-.796874-2.726562-2.902343-5.050781-5.636718-6.214843-3.457032-1.472657-6.0625-.398438-7.457032.179687-5.527343 2.28125-7.988281 7.238282-6.128906 12.335938 1.464844 4.011718 5.507813 6.617187 9.660156 6.617187zm0 0"/><path d="m276.324219 95.675781c1.003906 0 2.015625-.152343 2.996093-.472656 5.039063-1.652344 8.046876-7.351563 6.5625-12.445313-.792968-2.726562-2.898437-5.050781-5.632812-6.214843-3.460938-1.472657-6.0625-.398438-7.457031.179687-5.527344 2.277344-7.992188 7.238282-6.128907 12.335938 1.464844 4.011718 5.507813 6.617187 9.660157 6.617187zm0 0"/><path d="m114.074219 403.414062c-20.644531-12.246093-44.507813-4.988281-58.03125 17.652344-3.910157 6.554688-6.5 13.984375-7.484375 21.492188-1.363282 10.34375.167968 20.554687 4.304687 28.75 5.472657 10.84375 16.085938 18.652344 27.6875 20.378906 1.730469.253906 3.480469.382812 5.246094.382812 9.074219 0 18.484375-3.339843 26.488281-9.515624 11.957032-9.21875 19.671875-23.75 20.644532-38.863282 1.058593-16.496094-6.695313-33.058594-18.855469-40.277344zm8.835937 39.632813c-.777344 12.09375-7.195312 24.1875-16.753906 31.558594-7.414062 5.722656-16.210938 8.324219-24.128906 7.148437-8.433594-1.25-16.171875-6.988281-20.203125-14.96875-3.238281-6.414062-4.414063-14.550781-3.3125-22.921875.808593-6.160156 2.9375-12.261719 6.152343-17.648437 7.164063-11.996094 17.914063-18.519532 28.972657-18.519532 5.148437 0 10.367187 1.414063 15.316406 4.351563 9.042969 5.371094 14.785156 18.117187 13.957031 31zm0 0"/><path d="m458.917969 410.25c-2.550781-11.40625-8.621094-23.855469-17.089844-35.058594-7.925781-10.488281-17.710937-18.0625-28.289063-21.902344-7.726562-2.804687-26.140624-7.027343-50.878906 3.292969-.003906-.050781.007813-.097656.007813-.144531-.183594-4.511719-.894531-8.941406-1.929688-13.25 6.421875-1.164062 13.910157-2.84375 19.898438-7.621094 4.847656-3.867187 8.453125-9.511718 10.714843-16.773437 5.550782-17.816407.773438-39.269531-12.46875-55.988281-9.960937-12.582032-24.066406-22.675782-43.046874-30.796876 1.117187-3.894531 1.566406-7.871093 1.242187-11.757812-.75-9.003906-5.195313-16.710938-9.972656-23.707031 3.878906-4.480469 7.261719-9.222657 10.121093-14.207031 5.882813-10.261719 9.800782-22.242188 11.328126-34.648438 2.003906-16.273438-.171876-33.03125-5.929688-48.808594 12.421875-1.234375 24.414062-7.246094 32.699219-16.578125 4.300781-4.839843 7.5625-10.476562 9.433593-16.300781 1.78125-5.527344 2.53125-11.78125 2.300782-19.113281-.207032-6.496094-1.109375-11.699219-2.839844-16.367188-3.238281-8.734375-9.890625-16.417969-18.726562-21.628906-7.515626-4.433594-16.472657-7.097656-26.625-7.921875-12.746094-1.0351562-24.492188 1.167969-33.964844 6.375-10.558594 5.800781-18.097656 15.410156-20.585938 26.046875-9.691406-5.03125-20.042968-8.839844-30.777344-11.261719-16.671874-3.757812-38.269531-1.273437-59.25 6.824219-3.390624 1.304687-6.691406 2.777344-9.917968 4.375-1.84375-7.433594-6.007813-14.394531-12.089844-20.167969-14.828125-14.074218-38.660156-17.269531-56.671875-7.59375-18.011719 9.679688-28.503906 31.316406-24.953125 51.449219 3.304688 18.710937 18.449219 34.480469 36.8125 38.96875-2.851562 7.367187-4.960938 15.011719-6.242188 22.789063-4.25 25.839843 1.265626 51.578124 14.546876 70.644531-10.863282 9.371093-15.332032 25.960937-10.847657 41.039062.5625 1.886719 1.273438 3.746094 2.089844 5.578125-16.996094 7.953125-31.769531 20.132813-42.804687 35.335938-6.152344 8.476562-9.917969 16.390625-11.511719 24.191406-2.375 11.648438.015625 24.019531 6.5625 33.945312 6.222656 9.433594 15.964843 16.277344 26.914062 18.988282-.953125 3.472656-1.835937 6.964844-2.640625 10.472656-27.386718-13.300781-47.886718-8.679688-56.152344-5.679688-10.582031 3.839844-20.363281 11.414063-28.292968 21.902344-8.464844 11.203125-14.535156 23.652344-17.089844 35.058594-8.488281 37.914062 10.714844 77.457031 44.667969 91.980469 13.253906 5.671875 29.027343 8.804687 43.976562 8.804687 1.621094 0 3.234375-.039062 4.832031-.113281 17.433594-.8125 31.886719-7.234375 42.1875-18.644531 4.046876 2.179687 8.148438 3.847656 11.691407 5.207031 24.878906 9.546875 52.203125 14.515625 79.542969 14.515625 2.902343 0 5.808593-.054688 8.707031-.167969 29.519531-1.144531 58.863281-8.164062 85.015625-20.285156 10.335937 11.859375 25.023437 18.546875 42.824218 19.375 1.59375.074219 3.207032.113281 4.828126.113281 14.949218 0 30.722656-3.132812 43.976562-8.804687 33.953125-14.523438 53.15625-54.066407 44.667969-91.980469zm-87.90625-141.214844c11.210937 14.15625 15.332031 32.078125 10.753906 46.769532-1.632813 5.238281-4.1875 9.359374-7.390625 11.914062-4.40625 3.511719-10.753906 4.765625-16.515625 5.785156-2.554687-7.234375-5.734375-13.980468-8.566406-19.992187-10.117188-21.460938-19.914063-40.566407-35.339844-55.167969 3.277344-1.9375 6.476563-4.191406 9.421875-6.859375 3.410156-3.082031 6.246094-6.566406 8.449219-10.273437 17.433593 7.453124 30.277343 16.574218 39.1875 27.824218zm-77.265625-231.628906c1.332031-8.425781 7.460937-16.574219 15.992187-21.265625 7.746094-4.257813 17.539063-6.042969 28.320313-5.167969 8.621094.699219 16.136718 2.910156 22.335937 6.5625 6.855469 4.046875 11.972657 9.894532 14.414063 16.472656 1.339844 3.621094 2.046875 7.8125 2.214844 13.195313.195312 6.164063-.402344 11.308594-1.820313 15.722656-1.453125 4.507813-4.003906 8.902344-7.386719 12.710938-7.316406 8.242187-18.257812 13.261719-29.28125 13.445312-1.542968-3.265625-3.25-6.46875-5.101562-9.601562 7.894531-2.578125 14.011718-6.160157 18.625-10.898438 7.050781-7.242187 9.96875-17.105469 7.621094-25.738281-1.78125-6.542969-6.527344-12.246094-13.019532-15.648438-5.511718-2.882812-12.121094-4.074218-19.113281-3.441406-7.390625.671875-13.917969 3.246094-18.875 7.453125-3.921875 3.328125-6.707031 7.648438-8.058594 12.261719-2.351562-1.710938-4.753906-3.347656-7.214843-4.894531.15625-.367188.285156-.753907.347656-1.167969zm15.953125 13.355469c.011719-.195313.042969-.386719.035156-.585938-.15625-4.003906 1.925781-8.339843 5.433594-11.3125 4.257812-3.617187 9.574219-4.773437 13.28125-5.109375 5.074219-.457031 9.753906.347656 13.550781 2.335938 3.96875 2.078125 6.957031 5.589844 7.992188 9.390625 1.402343 5.144531-.613282 11.460937-5.125 16.101562-3.914063 4.019531-9.539063 7.007813-17.148438 9.136719-5.175781-7.222656-11.210938-13.941406-18.019531-19.957031zm-209.15625 4.507812c-2.773438-15.730469 5.746093-33.296875 19.816406-40.859375 14.074219-7.558594 33.425781-4.96875 45.011719 6.03125 4.777344 4.535156 8.117187 10.171875 9.402344 15.871094.152343.683594.4375 1.300781.824218 1.832031-1.976562 1.203125-3.921875 2.449219-5.820312 3.761719-5.40625-13.007812-19.839844-21.832031-33.910156-20.359375-5.34375.558594-10.050782 2.425781-13.621094 5.402344-3.464844 2.890625-6.078125 6.953125-7.765625 12.082031-2.988281 9.0625-2.144531 19.210938 2.261719 27.140625 3.925781 7.066406 10.574218 12.265625 18.042968 14.347656-1.128906 2-2.199218 4.03125-3.210937 6.089844-15.160157-2.925781-28.347657-16.128906-31.03125-31.339844zm39.925781 16.136719c-5.988281-.566406-11.84375-4.515625-14.953125-10.109375-3.066406-5.523437-3.628906-12.671875-1.503906-19.121094 1.078125-3.273437 2.691406-5.871093 4.664062-7.515625 2.566407-2.144531 5.894531-2.882812 8.234375-3.128906 10.128906-1.054688 20.960938 5.957031 24.128906 15.644531.121094.367188.289063.707031.480469 1.023438-8.019531 6.714843-15.101562 14.566406-21.050781 23.207031zm-9.335938 49c4.1875-25.441406 18.078126-49.34375 38.109376-65.570312 8.539062-6.917969 18.183593-12.476563 28.664062-16.519532 13.441406-5.1875 27.027344-7.882812 39.046875-7.882812 5.121094 0 9.960937.492187 14.378906 1.488281 19.023438 4.289063 36.761719 13.273437 51.304688 25.988281 26.097656 22.8125 39.871093 56.742188 35.953125 88.550782-1.363282 11.089843-4.847656 21.765624-10.074219 30.878906-5.886719 10.269531-14.320313 19.433594-25.0625 27.242187-18.363281 13.339844-41.007813 20.613281-63.671875 20.410157-15.539062-.121094-32.316406-3.640626-51.289062-10.753907-15.945313-5.976562-26.8125-12.113281-35.238282-19.898437-18.355468-16.960938-26.832031-45.289063-22.121094-73.933594zm10.90625 76.855469c1.410157 1.546875 2.871094 3.039062 4.402344 4.453125 9.425782 8.707031 21.304688 15.46875 38.523438 21.925781 20.09375 7.535156 38 11.261719 54.734375 11.394531.300781 0 .597656.003906.894531.003906 24.527344-.003906 48.914062-7.914062 68.757812-22.335937 3.804688-2.761719 7.347657-5.6875 10.628907-8.765625 3.527343 5.363281 6.585937 11.101562 7.089843 17.144531.660157 7.875-3.238281 16.460938-10.425781 22.957031-7.492187 6.773438-17.402343 10.617188-25.195312 13.207032-29.152344 9.683594-62.46875 12.390625-96.34375 7.828125-10.824219-1.457031-24.8125-3.984375-37.019531-10.632813-11.792969-6.417968-20.371094-16.203125-23.535157-26.847656-3.289062-11.046875-.132812-23.507812 7.488281-30.332031zm124.957032 141.960937c2.421875 17.648438 4.921875 35.898438 4.988281 53.863282-18.207031 1.804687-36.921875 1.929687-55.019531 2.050781l-26.714844.183593 8.082031-119.726562c9.601563 1.117188 19.148438 1.675781 28.578125 1.675781 10.625 0 21.089844-.710937 31.292969-2.117187zm-179.351563-15.246094c-5.097656-7.71875-6.957031-17.34375-5.105469-26.40625 1.296876-6.367187 4.503907-13.007812 9.796876-20.304687 10.203124-14.054687 23.914062-25.265625 39.699218-32.492187 4.390625 6.164062 10.265625 11.671874 17.234375 16.101562-17.675781 23.417969-31.339843 49.972656-40.230469 77.980469-8.707031-2.027344-16.46875-7.40625-21.394531-14.878907zm7.363281 176.917969c-14.859374.695313-31.042968-2.183593-44.386718-7.890625-29.582032-12.65625-46.269532-47.289062-38.820313-80.558594.03125-.140624.066407-.28125.101563-.421874 6.414062 2.191406 12.496094 5.234374 18.085937 9.074218.871094.597656 1.859375.882813 2.839844.882813 1.597656 0 3.167969-.761719 4.140625-2.175781 1.570312-2.285157.988281-5.410157-1.296875-6.980469-6.402344-4.398438-13.371094-7.875-20.726563-10.367188 2.84375-7.105469 7-14.386719 12.15625-21.210937 2.324219-3.074219 4.820313-5.839844 7.449219-8.285156 4.800781 7.421874 10.460938 14.269531 16.867188 20.359374.96875.925782 2.214843 1.382813 3.457031 1.382813 1.328125 0 2.652344-.523437 3.636719-1.558594 1.910156-2.007812 1.832031-5.1875-.175781-7.097656-6.035157-5.738281-11.347657-12.210937-15.8125-19.242187 2.683593-1.679688 5.457031-3.050782 8.285156-4.078126 8.074218-2.929687 17.445312-3.417968 27.308594-1.636718-.027344.335937-.023438.683594.019531 1.03125.863281 7.035156.902343 14.175781.121093 21.21875-.304687 2.753906 1.679688 5.234375 4.433594 5.542968.191406.019532.378906.03125.5625.03125 2.523438 0 4.695313-1.902343 4.980469-4.46875.765625-6.878906.820313-13.835937.171875-20.726562 7.601562 2.496094 15.332031 6.246094 22.84375 11.1875 15.234375 10.023438 25.101562 21.8125 30.160156 36.035156 3.972656 11.160156 5.292969 24.054688 3.824219 37.277344-1.488281 13.386719-5.496094 24.660156-11.910156 33.503906-10.78125 14.871094-26.789063 18.632813-38.316407 19.171875zm57.945313-12.78125c-2.828125-1.085937-6.023437-2.386719-9.160156-3.972656 6.082031-9.648437 9.921875-21.335937 11.417969-34.8125 1.640624-14.726563.140624-29.164063-4.339844-41.75-5.738282-16.132813-17.210938-29.945313-34.101563-41.058594-1.371093-.898437-2.722656-1.738281-4.0625-2.550781 7.738281-35.492188 23.421875-69.410156 45.480469-98.261719 10.226562 4.675781 20.933594 7.058594 30.171875 8.523438l-8.285156 122.796875c-.074219 1.09375-.300781 4.429687 2.394531 6.710937 1.839844 1.550781 3.953125 1.640625 5.019531 1.640625h.210938l29.332031-.199218c18.332031-.125 37.289062-.253907 55.964844-2.105469 1.496094-.148438 5-.496094 7.242187-3.378907 1.796875-2.304687 1.789063-5.03125 1.785157-6.339843-.039063-18.734375-2.601563-37.421875-5.082032-55.496094l-8.824218-64.308594c9.109374-1.691406 17.96875-3.945312 26.496093-6.777343 3.007813-1 6.308594-2.179688 9.703125-3.617188 15.765625 13.65625 25.625 32.851562 35.894532 54.636719 6.71875 14.246093 11.898437 26.167969 12.425781 39.054687.058593 1.464844.75 2.738282 1.789062 3.617188-3.335937 1.746094-6.757812 3.742187-10.273437 6.054687-16.890625 11.113281-28.367188 24.925781-34.101563 41.058594-4.476562 12.585937-5.980469 27.023437-4.34375 41.75 1.453125 13.074219 5.113281 24.464844 10.878907 33.941406-50.78125 22.925781-111.636719 24.792969-163.632813 4.84375zm257.347656 4.890625c-13.34375 5.707032-29.53125 8.585938-44.386719 7.890625-11.527343-.535156-27.535156-4.296875-38.320312-19.171875-6.410156-8.84375-10.417969-20.117187-11.90625-33.503906-1.472656-13.226562-.148438-26.117188 3.820312-37.277344 5.0625-14.222656 14.925782-26.011718 30.164063-36.035156 7.511719-4.941406 15.242187-8.691406 22.84375-11.191406-.652344 6.890625-.597656 13.851562.167969 20.730468.285156 2.566407 2.460937 4.464844 4.984375 4.464844.183593 0 .371093-.007812.558593-.03125 2.757813-.304687 4.742188-2.785156 4.433594-5.542968-.78125-7.042969-.738281-14.179688.125-21.214844.042969-.351563.046875-.695313.019532-1.03125 3.808593-.6875 7.542968-1.042969 11.15625-1.042969 5.746093 0 11.195312.878906 16.152343 2.679687 2.828125 1.027344 5.601563 2.398438 8.285157 4.078126-4.464844 7.03125-9.777344 13.503906-15.8125 19.242187-2.007813 1.910156-2.089844 5.085937-.179688 7.097656.988281 1.035157 2.3125 1.558594 3.640625 1.558594 1.242187 0 2.484375-.457031 3.457031-1.382813 6.40625-6.089843 12.066406-12.9375 16.863282-20.359374 2.628906 2.445312 5.125 5.210937 7.449218 8.285156 5.160156 6.824218 9.3125 14.105468 12.15625 21.210937-7.351562 2.492188-14.320312 5.96875-20.726562 10.363281-2.285156 1.570313-2.863282 4.695313-1.292969 6.980469.972656 1.417969 2.542969 2.179688 4.140625 2.179688.980469 0 1.96875-.285157 2.839844-.882813 5.589844-3.839844 11.671875-6.882812 18.085937-9.074218.03125.140624.070313.28125.101563.417968 7.449218 33.273438-9.238282 67.90625-38.820313 80.5625zm0 0"/><path d="m404.878906 421.070312c-13.523437-22.644531-37.386718-29.90625-58.03125-17.652343-12.160156 7.214843-19.914062 23.773437-18.855468 40.273437.972656 15.113282 8.6875 29.644532 20.644531 38.863282 8.003906 6.175781 17.414062 9.515624 26.488281 9.515624 1.765625 0 3.519531-.128906 5.246094-.382812 11.605468-1.726562 22.214844-9.535156 27.6875-20.378906 4.136718-8.195313 5.667968-18.40625 4.308594-28.75-.988282-7.507813-3.578126-14.9375-7.488282-21.488282zm-5.78125 45.714844c-4.03125 7.980469-11.769531 13.71875-20.203125 14.972656-7.917969 1.171876-16.714843-1.429687-24.128906-7.148437-9.558594-7.375-15.976563-19.46875-16.753906-31.558594-.828125-12.886719 4.914062-25.632812 13.960937-31 4.949219-2.9375 10.164063-4.351562 15.3125-4.351562 11.054688 0 21.808594 6.523437 28.972656 18.519531 3.21875 5.382812 5.347657 11.488281 6.15625 17.648438 1.097657 8.367187-.078124 16.507812-3.316406 22.917968zm0 0"/></svg>