<svg id="Master_Line" enable-background="new 0 0 512 512" height="512" viewBox="0 0 512 512" width="512" xmlns="http://www.w3.org/2000/svg"><path d="m332.89 357.13v-205.93c0-4.09 3.32-7.41 7.41-7.41h92.08c7.18 0 14.23 5.14 16.74 12.21l28.44 79.97h10.82c9.63 0 17.43 7.8 17.43 17.43v85.84c0 9.17-7.43 16.6-16.6 16.6h-153.85" fill="#51a6c0"/><path d="m454.48 175.5h-65.76c-3.55 0-6.16 2.52-6.22 6l-.41 52.73h93.28" fill="#fff"/><path d="m295.62 133.91h-259.81c-5.52 0-10 4.48-10 10v117.84c0 6.16 1.41 12.23 4.13 17.76l38.21 77.63h227.47" fill="#efb338"/><path d="m49.41 294.6v24.45l17.64 40.64 118.74-3.84c-1.87-81.97-56.14-89.96-136.38-61.25z" fill="#d39629"/><path d="m332.89 294.6v62.53l2.47-1.29h133.91c-1.88-81.96-56.14-89.95-136.38-61.24z" fill="#3a8fa3"/><path d="m91.51 262.17-19.11-87.53c-.58-2.64 1.43-5.14 4.14-5.14h8.28c11.39 0 20.5 9.45 20.08 20.83l-2.6 70.87c-.11 2.93-2.52 5.26-5.45 5.26-2.58 0-4.8-1.79-5.34-4.29z" fill="#d39629"/><path d="m165.87 262.17-19.11-87.53c-.58-2.64 1.43-5.14 4.14-5.14h8.28c11.39 0 20.5 9.45 20.08 20.83l-2.6 70.87c-.11 2.93-2.52 5.26-5.45 5.26-2.58 0-4.79-1.79-5.34-4.29z" fill="#d39629"/><path d="m240.23 262.17-19.11-87.53c-.58-2.64 1.43-5.14 4.14-5.14h8.28c11.39 0 20.5 9.45 20.08 20.83l-2.6 70.87c-.11 2.93-2.52 5.26-5.45 5.26-2.58 0-4.79-1.79-5.34-4.29z" fill="#d39629"/><g fill="#fff"><path d="m226.44 152.34c-27.07 3.39-54.42 3.84-81.66 3.04-9.08-.31-18.16-.79-27.21-1.65-1.1-.11-1.15-1.82.05-1.88 26.13-.95 55.39-1.15 81.52-1.37 9.06-.03 18.12-.03 27.21.23.94.01 1.14 1.47.09 1.63z"/><path d="m267.04 149.62c-5.54 2.39-11.54 2.77-17.48 2.61-1.97-.1-3.95-.29-5.94-.77-.53-.13-.86-.66-.73-1.19.08-.32.3-.57.59-.68 1.92-.77 3.85-1.25 5.79-1.64 3.87-.72 7.75-1.08 11.69-.89 1.97.11 3.96.34 5.97.92.76.2.83 1.34.11 1.64z"/><path d="m422.32 259.72c11.83-.87 23.64-.61 35.46-.08 4.5.36 9.32.12 13.7 1.2 5.26 1.46 9.65 5.71 11.24 10.87.31 1.02.7 2.15.99 3.18.44 1.42.84 2.84 1.24 4.27.14.5-.16 1.03-.66 1.17-.44.12-.89-.09-1.09-.47-.69-1.32-1.37-2.63-2.02-3.97-.47-.95-.99-2.03-1.45-3-2.41-5.19-7.69-8.22-13.32-7.98-8.86-.22-17.7-.66-26.53-1.41-5.89-.51-11.77-1.15-17.63-2.13-.91-.15-.9-1.59.07-1.65z"/><path d="m372.13 159.09c9.79-1.99 19.77-1.92 29.68-1.31 3.3.24 6.6.56 9.89 1.19.52.1.86.6.76 1.12-.08.4-.39.69-.76.76-3.3.63-6.6.95-9.89 1.19-6.59.46-13.19.52-19.79.04-3.3-.26-6.6-.62-9.89-1.35-.86-.17-.87-1.47 0-1.64z"/><path d="m191.99 297.21c-7.42-3.7-14.87-6.68-22.83-8.76-7.96-2.15-16.07-3.25-24.28-4.51-1.06-.15-1.06-1.75.01-1.88 16.8-2.05 35.69 1.61 48.07 13.83.65.63-.17 1.76-.97 1.32z"/><path d="m204.09 309.02c-2.24-.1-3.71-1.36-4.51-3.28-.42-1.01-.87-3.43.97-3.45 2.98.1 5.44 2.67 4.83 5.73-.12.61-.68 1.03-1.29 1z"/><path d="m216.7 333.94c-1.84-1.46-2.84-3.24-3.64-5.3-.53-1.26-2.51-8.46.69-7.1 2.75 2.02 4.32 5.14 4.78 8.44.1 1.08.31 5.11-1.83 3.96z"/><circle cx="412.32" cy="355.27" r="53.58"/><circle cx="145.45" cy="355.27" r="53.58"/></g><g><path d="m149.12 170.26h29.12c1.38 0 2.5-1.12 2.5-2.5s-1.12-2.5-2.5-2.5h-29.12c-2.05 0-3.96.92-5.25 2.51-1.29 1.6-1.77 3.66-1.33 5.66l8.81 40.35v.01l3.31 15.16v.01l6.62 30.34v.01l1.3 5.94c.26 1.17 1.29 1.97 2.44 1.97.18 0 .36-.02.54-.06 1.35-.29 2.2-1.63 1.91-2.98l-.63-2.88h11.4c1.38 0 2.5-1.12 2.5-2.5s-1.12-2.5-2.5-2.5h-12.49l-2.22-10.17h14.71c1.38 0 2.5-1.12 2.5-2.5s-1.12-2.5-2.5-2.5h-15.8l-2.22-10.17h18.02c1.38 0 2.5-1.12 2.5-2.5s-1.12-2.5-2.5-2.5h-19.12l-2.22-10.17h21.34c1.38 0 2.5-1.12 2.5-2.5s-1.12-2.5-2.5-2.5h-22.43l-2.22-10.17h24.65c1.38 0 2.5-1.12 2.5-2.5s-1.12-2.5-2.5-2.5h-25.74l-2.22-10.17h27.96c1.38 0 2.5-1.12 2.5-2.5s-1.12-2.5-2.5-2.5h-29.06l-1.76-8.07c-.15-.71.15-1.22.34-1.46.21-.26.64-.66 1.36-.66z"/><path d="m221.72 170.26h29.12c1.38 0 2.5-1.12 2.5-2.5s-1.12-2.5-2.5-2.5h-29.12c-2.05 0-3.96.92-5.25 2.51-1.29 1.6-1.77 3.66-1.33 5.66l8.81 40.35v.01l3.31 15.16v.01l6.62 30.34v.01l1.3 5.94c.26 1.17 1.29 1.97 2.44 1.97.18 0 .36-.02.54-.06 1.35-.29 2.2-1.63 1.91-2.98l-.63-2.88h11.4c1.38 0 2.5-1.12 2.5-2.5s-1.12-2.5-2.5-2.5h-12.49l-2.22-10.17h14.71c1.38 0 2.5-1.12 2.5-2.5s-1.12-2.5-2.5-2.5h-15.8l-2.22-10.17h18.02c1.38 0 2.5-1.12 2.5-2.5s-1.12-2.5-2.5-2.5h-19.12l-2.22-10.17h21.34c1.38 0 2.5-1.12 2.5-2.5s-1.12-2.5-2.5-2.5h-22.43l-2.22-10.17h24.65c1.38 0 2.5-1.12 2.5-2.5s-1.12-2.5-2.5-2.5h-25.74l-2.22-10.17h27.96c1.38 0 2.5-1.12 2.5-2.5s-1.12-2.5-2.5-2.5h-29.06l-1.76-8.07c-.15-.71.15-1.22.34-1.46.2-.26.63-.66 1.36-.66z"/><path d="m76.53 170.26h29.12c1.38 0 2.5-1.12 2.5-2.5s-1.12-2.5-2.5-2.5h-29.12c-2.05 0-3.96.92-5.25 2.51-1.29 1.6-1.77 3.66-1.33 5.66l8.81 40.35 3.31 15.17 6.63 30.34v.01l1.3 5.94c.26 1.17 1.29 1.97 2.44 1.97.18 0 .36-.02.54-.06 1.35-.29 2.2-1.63 1.91-2.98l-.63-2.88h11.4c1.38 0 2.5-1.12 2.5-2.5s-1.12-2.5-2.5-2.5h-12.49l-2.22-10.17h14.71c1.38 0 2.5-1.12 2.5-2.5s-1.12-2.5-2.5-2.5h-15.8l-2.22-10.17h18.03c1.38 0 2.5-1.12 2.5-2.5s-1.12-2.5-2.5-2.5h-19.13l-2.22-10.17h21.34c1.38 0 2.5-1.12 2.5-2.5s-1.12-2.5-2.5-2.5h-22.43l-2.23-10.18h24.65c1.38 0 2.5-1.12 2.5-2.5s-1.12-2.5-2.5-2.5h-25.74l-2.22-10.17h27.97c1.38 0 2.5-1.12 2.5-2.5s-1.12-2.5-2.5-2.5h-29.06l-1.76-8.07c-.15-.71.15-1.22.34-1.46s.63-.64 1.35-.64z"/><path d="m517.04 342.94c0-1.14-.09-3.84-.08-4.95-.31-22.39-.91-51.11-1.49-73.52l-.29-11.31c-.13-2.76-.02-7.55-.62-10.19-2.05-9.92-11.41-17.51-21.55-17.26-4.87.18-9.82.37-14.81.56-5.84-25.2-12.85-50.1-20.14-74.9-3.38-10.8-13.41-19.16-25.16-19.72l-1.02-.05-3.25-.13c-14.82-.61-30.78-1.08-45.56-1.37-12.56-.29-26.41-.38-39.05-.48-3.64-.07-7.63-.11-11.03 1.37-7.79 2.94-13.01 11.09-12.58 19.4.06 15.93.17 32.91.51 48.81 1.11 47.98 3.03 96.15 8.16 143.92-42.38.26-84.76.88-127.12 2-1.19-22.13-16.97-42.62-38.23-50.1-39.64-14.17-80.74 14.07-84.13 54.85-3.66.19-7.31.37-10.97.57-9.17-24.75-19.47-49.54-29.82-73.81-1.32-2.93-2.56-6.03-3.07-9.2-.85-4.26-.33-8.97-.21-13.26.62-14.32 1.21-32.1 1.58-46.5.58-21.01.87-42.02 1.08-63.03.88 0 1.69.01 1.69.01 81.39-.03 162.94-1.63 244.05-8.95-1.76 52.57-.73 105.24 4.42 157.63 1.29 12.25 2.71 24.46 4.87 36.62.18.98.94 1.79 1.98 1.98 1.33.24 2.61-.64 2.85-1.98 1.1-6.1 1.97-12.21 2.76-18.31 6.1-48.58 7.65-97.6 7.23-146.48-.15-12.21-.45-24.42-.94-36.62-.03-.72-.12-2.75-.15-3.43-.45-2.24 1.05-4.47 3.31-5 21.48-1.69 43.64-3.65 64.84-7.58 2.65-.51 2.64-4.34 0-4.86-11.98-2.29-24.5-3.75-36.62-5.1-8.38-.88-19.65-1.84-28.05-2.43-13.9-.74-26.04 11.08-26.11 24.98-.05 1.18-.09 2.37-.13 3.55-37.44-3.5-75.01-5.37-112.56-6.81-45.49-1.59-90.99-2.36-136.48-2.09-12.73.35-22.48 11.37-21.71 23.98.29 31.39.92 63.52 2.06 94.94.2 6.42.52 12.94.77 19.38.1 4.6.63 9.27 1.94 13.68 1.49 5.62 4.49 10.74 7.33 15.76 7.39 13.07 15.59 27.58 23.25 40.38 4.53 7.69 9.19 15.31 13.92 22.9-12.3.68-24.6 1.41-36.9 2.21-1.19.08-2.18 1.03-2.26 2.26-.09 1.34.92 2.51 2.26 2.6 17.93 1.17 35.86 2.2 53.81 3.12 3.8 42.63 49.73 70.32 89.31 51.01 17.97-8.57 30.59-26.78 32.53-46.29 48.66 1.28 97.34 1.91 146.02 2.09 7.78 38.69 50.9 62.46 88.33 44.2 17.43-8.31 29.82-25.69 32.32-44.52 3.37-.03 6.75-.05 10.12-.08 3.32-.05 12.93-.14 16.09-.25 12.87-.51 23.09-11.33 22.7-24.2zm-371.59 56.67c-23.12-1.65-41.23-21.27-41.09-44.35-.12-21.37 15.89-39.39 36.86-42.78 27.33-4.19 51.23 15.82 55.4 42.78-2.45 25.92-25.06 46.48-51.17 44.35zm266.87 0c-23.12-1.65-41.23-21.27-41.09-44.35-.12-21.37 15.89-39.39 36.86-42.78 27.33-4.19 51.22 15.82 55.4 42.78-2.44 25.92-25.05 46.48-51.17 44.35zm84.31-152.87-.03.71c-.12 3.54-.45 13.33-.55 16.96-.75 23.49-1.47 52.88-1.93 76.34 0 .43-.04 1.72-.04 2.12v.18c0 .07 0 .12-.01.11l-.02.06c-.16.7-.22.39-.19.36-.83.09-3.45-.03-4.31-.01-6.95-.07-13.89-.14-20.84-.2-1.89-21.46-17.4-41.09-38.11-48.37-37.38-13.36-76.07 10.99-83.19 48.01-3.55.01-7.1.03-10.65.04.5-4.57.95-9.14 1.36-13.71 2.4-25.99 3.96-52.05 5.11-78.1 1.39-32.04 2.04-64.71 2.12-96.79 25.47-.12 51.36-.65 76.76-1.57l11.19-.45c2.72.22 5.58 2.22 6.84 4.73 2.09 4.93 4.19 9.87 6.3 14.81h-54.35c-7.44 0-13.5 6.06-13.5 13.5v36.16c0 1.93 1.57 3.5 3.5 3.5s3.5-1.57 3.5-3.5v-36.13c0-3.58 2.92-6.5 6.5-6.5h57.36c4.7 10.88 9.48 21.73 14.47 32.45 2.33 5.06 4.74 10.08 7.18 15.1-17.99.71-36.38 1.51-53.74 2.49-13.2.8-32.28 1.68-45.24 2.78-3.02.28-2.86 4.6 0 4.83 39.02 2.79 79.65 4.58 118.76 6.03l1.41.05.71.02c.35.01.67.13 1 .26 1.29.53 2.84 2.18 2.62 3.64.01 0 .01.01.01.09z"/></g></svg>