<svg id="Layer_1" height="512" viewBox="0 0 512 512" width="512" xmlns="http://www.w3.org/2000/svg" data-name="Layer 1"><path d="m443.684 267.985c0 107.334-87.012 194.346-194.345 194.346a194.339 194.339 0 0 1 -176.206-112.307 24.3 24.3 0 0 0 -22.509-14.305 24.3 24.3 0 0 0 -22.443 14.405 25.043 25.043 0 0 0 .209 21.555 244.043 244.043 0 0 0 220.949 140.321c134.761 0 244.014-109.249 244.014-244.015s-109.253-244.014-244.014-244.014a243.341 243.341 0 0 0 -178.139 77.25l-2.35-76.881a25.107 25.107 0 1 0 -50.191 1.537l4.151 135.607a25.053 25.053 0 0 0 8.613 18.13 25.055 25.055 0 0 0 18.623 7.486l135.607-4.151a25.107 25.107 0 1 0 -1.536-50.191l-76.587 2.342a193.789 193.789 0 0 1 141.809-61.461c107.333 0 194.345 87.012 194.345 194.346z" fill-rule="evenodd"/></svg>