<?xml version="1.0" encoding="UTF-8" standalone="no"?>
<!-- Created with Inkscape (http://www.inkscape.org/) -->

<svg
   version="1.1"
   id="svg4728"
   xml:space="preserve"
   width="682.66669"
   height="682.66669"
   viewBox="0 0 682.66669 682.66669"
   xmlns="http://www.w3.org/2000/svg"
   xmlns:svg="http://www.w3.org/2000/svg"><defs
     id="defs4732"><clipPath
       clipPathUnits="userSpaceOnUse"
       id="clipPath4750"><path
         d="M 0,512 H 512 V 0 H 0 Z"
         id="path4748" /></clipPath></defs><g
     id="g4734"
     transform="matrix(1.3333333,0,0,-1.3333333,0,682.66667)"><path
       d="M 497.098,113.778 H 14.902 v 343.18 h 482.196 z"
       style="fill:#979fef;fill-opacity:1;fill-rule:nonzero;stroke:none"
       id="path4736" /><path
       d="m 255.873,113.778 h 241.226 v 343.18 H 255.873 Z"
       style="fill:#4b5be4;fill-opacity:1;fill-rule:nonzero;stroke:none"
       id="path4738" /><path
       d="m 139.343,55.043 h 233.314 v 58.734 H 139.343 Z"
       style="fill:#4b5be4;fill-opacity:1;fill-rule:nonzero;stroke:none"
       id="path4740" /><path
       d="m 255.873,55.043 h 116.785 v 58.734 H 255.873 Z"
       style="fill:#0040a0;fill-opacity:1;fill-rule:nonzero;stroke:none"
       id="path4742" /><g
       id="g4744"><g
         id="g4746"
         clip-path="url(#clipPath4750)"><path
           d="m 29.902,128.778 h 452.196 v 313.18 H 29.902 Z m 467.196,-30 H 14.902 c -8.284,0 -15,6.716 -15,15 v 343.179 c 0,8.285 6.716,15 15,15 h 482.196 c 8.284,0 15,-6.715 15,-15 V 113.778 c 0,-8.284 -6.716,-15 -15,-15"
           style="fill:#122356;fill-opacity:1;fill-rule:nonzero;stroke:none"
           id="path4752" /><g
           id="g4754"
           transform="translate(424.5932,40.0433)"><path
             d="m 0,0 h -337.187 c -8.284,0 -15,6.716 -15,15 0,8.284 6.716,15 15,15 H 0 C 8.284,30 15,23.284 15,15 15,6.716 8.284,0 0,0"
             style="fill:#122356;fill-opacity:1;fill-rule:nonzero;stroke:none"
             id="path4756" /></g><g
           id="g4758"
           transform="translate(497.0981,471.9574)"><path
             d="M 0,0 H -241.226 V -30 H -15 v -313.18 h -226.226 v -30 H 0 c 8.284,0 15,6.716 15,15 V -15 C 15,-6.716 8.284,0 0,0"
             style="fill:#001035;fill-opacity:1;fill-rule:nonzero;stroke:none"
             id="path4760" /></g><g
           id="g4762"
           transform="translate(424.5932,70.0433)"><path
             d="M 0,0 H -168.721 V -30 H 0 c 8.284,0 15,6.716 15,15 C 15,-6.716 8.284,0 0,0"
             style="fill:#001035;fill-opacity:1;fill-rule:nonzero;stroke:none"
             id="path4764" /></g><g
           id="g4766"
           transform="translate(240.9018,166.1302)"><path
             d="M 0,0 C 0,8.284 6.716,15 15,15 23.284,15 30,8.284 30,0 30,-8.285 23.284,-15 15,-15 6.716,-15 0,-8.285 0,0"
             style="fill:#ff5475;fill-opacity:1;fill-rule:nonzero;stroke:none"
             id="path4768" /></g><g
           id="g4770"
           transform="translate(255.9018,181.1302)"><path
             d="M 0,0 C -0.01,0 -0.02,-0.002 -0.029,-0.002 V -29.999 C -0.02,-29.999 -0.01,-30 0,-30 c 8.284,0 15,6.715 15,15 C 15,-6.716 8.284,0 0,0"
             style="fill:#f70057;fill-opacity:1;fill-rule:nonzero;stroke:none"
             id="path4772" /></g><g
           id="g4774"
           transform="translate(337.1655,383.9437)"><path
             d="m 0,0 h -160.154 c -43.78,0 -79.271,-35.491 -79.271,-79.271 v -2.177 c 0,-43.781 35.491,-79.271 79.271,-79.271 h 5.454 c 18.286,0 36.45,2.406 54.286,6.438 6.534,1.477 13.332,2.258 20.312,2.258 6.981,0 13.779,-0.781 20.313,-2.258 17.836,-4.032 36.001,-6.438 54.286,-6.438 H 0 c 43.779,0 79.271,35.49 79.271,79.271 v 2.177 C 79.271,-35.491 43.779,0 0,0"
             style="fill:#e6eeff;fill-opacity:1;fill-rule:nonzero;stroke:none"
             id="path4776" /></g><g
           id="g4778"
           transform="translate(212.644,319.472)"><path
             d="m 0,0 h -16.96 v 16.071 c 0,8.284 -6.716,15 -15,15 -8.284,0 -15,-6.716 -15,-15 V 0 h -17.95 c -8.284,0 -15,-6.716 -15,-15 0,-8.284 6.716,-15 15,-15 h 17.95 v -16.072 c 0,-8.284 6.716,-15 15,-15 8.284,0 15,6.716 15,15 V -30 H 0 c 8.284,0 15,6.716 15,15 C 15,-6.716 8.284,0 0,0"
             style="fill:#122356;fill-opacity:1;fill-rule:nonzero;stroke:none"
             id="path4780" /></g><g
           id="g4782"
           transform="translate(337.1655,383.9437)"><path
             d="m 0,0 h -81.293 v -152.04 c 0.397,0.005 0.793,0.017 1.191,0.017 6.981,0 13.779,-0.781 20.313,-2.258 17.836,-4.032 36.001,-6.438 54.286,-6.438 H 0 c 43.78,0 79.271,35.491 79.271,79.271 v 2.177 C 79.271,-35.491 43.78,0 0,0"
             style="fill:#ccddff;fill-opacity:1;fill-rule:nonzero;stroke:none"
             id="path4784" /></g><g
           id="g4786"
           transform="translate(314.6206,270.4886)"><path
             d="M 0,0 C 0,8.284 6.716,15 15,15 23.284,15 30,8.284 30,0 30,-8.284 23.284,-15 15,-15 6.716,-15 0,-8.284 0,0"
             style="fill:#e50048;fill-opacity:1;fill-rule:nonzero;stroke:none"
             id="path4788" /></g><g
           id="g4790"
           transform="translate(280.6391,304.472)"><path
             d="M 0,0 C 0,8.284 6.716,15 15,15 23.284,15 30,8.284 30,0 30,-8.284 23.284,-15 15,-15 6.716,-15 0,-8.284 0,0"
             style="fill:#4b5be4;fill-opacity:1;fill-rule:nonzero;stroke:none"
             id="path4792" /></g><g
           id="g4794"
           transform="translate(314.6225,338.4554)"><path
             d="M 0,0 C 0,8.284 6.716,15 15,15 23.284,15 30,8.284 30,0 30,-8.284 23.284,-15 15,-15 6.716,-15 0,-8.284 0,0"
             style="fill:#ffe133;fill-opacity:1;fill-rule:nonzero;stroke:none"
             id="path4796" /></g><g
           id="g4798"
           transform="translate(348.6049,304.472)"><path
             d="M 0,0 C 0,8.284 6.716,15 15,15 23.285,15 30,8.284 30,0 30,-8.284 23.285,-15 15,-15 6.716,-15 0,-8.284 0,0"
             style="fill:#00ff8d;fill-opacity:1;fill-rule:nonzero;stroke:none"
             id="path4800" /></g></g></g></g></svg>
